<svg width="73" height="88" viewBox="0 0 73 88" fill="none" xmlns="http://www.w3.org/2000/svg">
<path d="M55.3605 56.7875C54.8773 53.9542 51.9778 51.6902 48.7406 51.6306C46.4038 51.5578 44.0008 52.4978 41.5978 54.3249C41.5546 53.0439 41.1267 51.8057 40.3699 50.7714C39.613 49.737 38.5622 48.9546 37.3544 48.5259C35.9794 48.1109 34.5177 48.0764 33.1247 48.4261C31.7317 48.7758 30.4595 49.4966 29.4436 50.5118C28.4646 51.5356 27.6997 52.7445 27.1939 54.0676C26.6881 55.3908 26.4514 56.8016 26.4978 58.2174C26.6507 60.8832 27.3778 63.4846 28.6294 65.8434C28.7684 66.095 28.914 66.3465 29.0597 66.5915C29.2053 66.8364 29.3443 67.0615 29.4767 67.313C29.6091 67.5646 29.7217 67.7433 29.8474 67.975C30.9463 69.961 32.4424 72.642 34.905 72.6884H35.0639C37.8046 72.6884 41.1013 70.9871 43.5175 69.7425L43.6963 69.6498C43.7306 69.6303 43.7619 69.6058 43.7889 69.577C46.5549 68.1654 49.1289 66.4056 51.4482 64.3407C54.4073 61.7325 55.7114 59.1838 55.3605 56.7875ZM50.9186 63.7251C48.8174 65.5905 46.5018 67.1994 44.0206 68.5178C44.0372 68.7669 44.0372 69.0168 44.0206 69.2659C44.0153 69.3393 43.9911 69.4101 43.9506 69.4715C43.91 69.533 43.8544 69.583 43.7889 69.6167L43.6168 69.7028C41.194 70.954 37.9039 72.6553 35.1632 72.6553H34.9977C32.5417 72.6089 31.0258 69.908 29.9401 67.9419C29.8143 67.7036 29.6886 67.4852 29.5694 67.2799C29.4502 67.0747 29.2914 66.7901 29.1523 66.5517C29.0133 66.3134 28.8611 66.0619 28.7287 65.8103C28.6898 65.739 28.6723 65.6581 28.6782 65.5771C28.6841 65.4961 28.7131 65.4185 28.7618 65.3536C28.8875 65.1814 29.0266 65.0358 29.159 64.8836C28.1338 62.8178 27.5371 60.566 27.4047 58.2637C27.36 56.9642 27.5753 55.6688 28.0379 54.4536C28.5006 53.2384 29.2013 52.1278 30.099 51.1871C31.4477 49.8458 33.2678 49.0854 35.1698 49.0687C35.8444 49.0624 36.5155 49.1676 37.1558 49.3798C39.5919 50.2007 41.2271 52.8884 40.7239 55.2583C40.7056 55.3456 40.7148 55.4365 40.7504 55.5183C40.786 55.6002 40.8461 55.6689 40.9225 55.715C41.0002 55.7613 41.0903 55.7823 41.1804 55.7752C41.2705 55.7681 41.3562 55.7332 41.4256 55.6753C43.928 53.5437 46.4038 52.4912 48.7936 52.5309C51.5673 52.5772 54.1557 54.5698 54.5595 56.9596C54.8707 59.0448 53.6592 61.3353 50.9583 63.7648L50.9186 63.7251Z" fill="#222222"/>
<path d="M43.3334 65.7374C43.2842 65.7712 43.2377 65.8089 43.1944 65.8499C43.1183 65.9018 43.0283 65.9295 42.9362 65.9294C42.8693 65.9299 42.8032 65.9146 42.7434 65.8847C42.6836 65.8547 42.6317 65.8111 42.592 65.7573C42.5584 65.7117 42.5342 65.6599 42.5207 65.6049C42.5072 65.5499 42.5046 65.4928 42.5132 65.4368C42.5219 65.3809 42.5414 65.3271 42.5708 65.2788C42.6003 65.2304 42.6389 65.1883 42.6846 65.1549L42.9031 64.9761C42.4644 64.2934 41.9191 63.6855 41.2878 63.1755H41.2481C41.1859 63.1596 41.128 63.1299 41.0788 63.0886C41.0295 63.0474 40.9901 62.9957 40.9635 62.9372C39.7142 62.0193 38.2222 61.4898 36.6738 61.4146C36.3122 61.3914 35.9496 61.3914 35.5881 61.4146C35.5418 61.4874 35.502 61.5603 35.4491 61.6331C35.4168 61.6791 35.3756 61.7182 35.3281 61.7482C35.2805 61.7781 35.2274 61.7983 35.172 61.8076C35.1165 61.8168 35.0598 61.8149 35.0051 61.802C34.9504 61.7891 34.8988 61.7654 34.8533 61.7324C34.7826 61.6813 34.7295 61.6096 34.701 61.5272C34.1689 61.6194 33.646 61.7589 33.1387 61.9442C33.1164 61.9994 33.0832 62.0495 33.0412 62.0916C32.9991 62.1337 32.949 62.1668 32.8938 62.1892C32.8454 62.1949 32.7965 62.1949 32.7482 62.1892C32.693 62.1869 32.639 62.1734 32.5893 62.1494C31.2492 62.7728 30.0678 63.6917 29.1337 64.8371C29.0013 64.9894 28.8623 65.135 28.7365 65.3071C28.6878 65.3721 28.6588 65.4497 28.6529 65.5306C28.647 65.6116 28.6646 65.6926 28.7034 65.7639C28.8358 66.0154 28.9814 66.2604 29.1271 66.5053C29.2727 66.7502 29.4117 66.9819 29.5441 67.2335C29.6765 67.485 29.7891 67.6572 29.9148 67.8955C31.0137 69.8814 32.5165 72.5625 34.9725 72.6088H35.1379C37.8786 72.6088 41.1687 70.9075 43.5916 69.6564L43.7637 69.5703C43.8291 69.5365 43.8847 69.4865 43.9253 69.4251C43.9659 69.3637 43.99 69.2929 43.9954 69.2194C44.012 68.9704 44.012 68.7205 43.9954 68.4714C43.9656 67.6992 43.8114 66.937 43.5386 66.214C43.4856 66.0816 43.4128 65.9095 43.3334 65.7374ZM36.634 62.2752C37.9558 62.3288 39.2343 62.761 40.3175 63.5203C41.4008 64.2796 42.2431 65.334 42.7442 66.5583C43.0363 67.3249 43.1757 68.1412 43.1547 68.9613C40.7715 70.1926 37.541 71.821 34.9923 71.7879C33.0063 71.7482 31.6824 69.2989 30.6695 67.5181C30.5371 67.2798 30.4113 67.0481 30.2988 66.8561C30.1863 66.6642 30.0141 66.3531 29.8685 66.1081L29.5971 65.6447C30.4001 64.5451 31.4632 63.6618 32.6912 63.0737C33.9193 62.4857 35.274 62.2114 36.634 62.2752Z" fill="#222222"/>
<path d="M34.535 65.466H34.6012C34.6574 65.4572 34.7112 65.4373 34.7597 65.4074C34.8082 65.3776 34.8503 65.3385 34.8835 65.2923C34.9167 65.2462 34.9405 65.1938 34.9534 65.1384C34.9663 65.083 34.9681 65.0256 34.9586 64.9695L34.8924 64.5657C34.873 64.4534 34.8098 64.3534 34.7167 64.2876C34.6237 64.2218 34.5083 64.1956 34.3959 64.2148C34.2836 64.2342 34.1836 64.2974 34.1178 64.3905C34.052 64.4836 34.0259 64.599 34.0451 64.7113L34.1113 65.1151C34.1298 65.2139 34.1823 65.303 34.2597 65.3671C34.3371 65.4312 34.4345 65.4662 34.535 65.466Z" fill="#222222"/>
<path d="M38.7646 67.1078C38.8253 67.108 38.8854 67.0958 38.9412 67.0719C38.997 67.048 39.0473 67.0129 39.0889 66.9688C39.2081 66.8297 39.314 66.7106 39.4266 66.5981C39.5391 66.4855 39.6582 66.3399 39.784 66.2009C39.822 66.1588 39.8512 66.1096 39.8701 66.0561C39.889 66.0027 39.8971 65.9461 39.894 65.8895C39.8909 65.8329 39.8767 65.7774 39.8522 65.7264C39.8276 65.6753 39.7932 65.6296 39.7509 65.5918C39.6651 65.5169 39.5535 65.4783 39.4397 65.4845C39.3259 65.4907 39.2191 65.5411 39.1419 65.6249L38.791 66.0155C38.6785 66.1347 38.566 66.2538 38.4468 66.3928C38.4089 66.4349 38.3796 66.4841 38.3607 66.5376C38.3419 66.591 38.3337 66.6476 38.3368 66.7042C38.3399 66.7608 38.3541 66.8163 38.3787 66.8673C38.4032 66.9184 38.4376 66.9641 38.4799 67.0019C38.5584 67.0711 38.6598 67.1089 38.7646 67.1078Z" fill="#222222"/>
<path d="M35.7397 68.412H35.8589C35.9523 68.4106 36.0429 68.3799 36.1178 68.324C36.1927 68.2681 36.248 68.19 36.2759 68.1008C36.3069 67.9911 36.2938 67.8736 36.2394 67.7734C36.185 67.6733 36.0936 67.5983 35.9846 67.5646C35.9374 67.5493 35.8928 67.527 35.8522 67.4984C35.8073 67.4572 35.7542 67.4261 35.6964 67.407C35.6385 67.3879 35.5773 67.3813 35.5167 67.3876C35.4561 67.3939 35.3975 67.413 35.3449 67.4437C35.2922 67.4744 35.2467 67.5159 35.2113 67.5654C35.1759 67.615 35.1514 67.6716 35.1394 67.7313C35.1275 67.7911 35.1284 67.8526 35.1421 67.912C35.1557 67.9714 35.1818 68.0272 35.2187 68.0757C35.2555 68.1242 35.3022 68.1644 35.3557 68.1935C35.4688 68.2899 35.5991 68.364 35.7397 68.412Z" fill="#222222"/>
<path d="M41.2469 63.1755H41.2866C41.3915 63.1939 41.4995 63.1721 41.5891 63.1144C41.6786 63.0568 41.7431 62.9675 41.7698 62.8644C41.952 61.8241 42.4461 60.8637 43.1865 60.1106C43.4052 59.9327 43.66 59.8044 43.9332 59.7347C44.2064 59.665 44.4914 59.6554 44.7687 59.7067C44.9261 59.7303 45.076 59.7897 45.2069 59.8804C45.3377 59.9711 45.446 60.0906 45.5233 60.2297C45.6349 60.533 45.6733 60.8584 45.6353 61.1793C45.5974 61.5003 45.4842 61.8077 45.3049 62.0766C44.7388 63.2159 43.9162 64.2084 42.9019 64.9761L42.6834 65.1549C42.6377 65.1883 42.599 65.2304 42.5696 65.2788C42.5402 65.3272 42.5206 65.3809 42.512 65.4369C42.5034 65.4928 42.5059 65.5499 42.5194 65.6049C42.5329 65.6599 42.5572 65.7117 42.5907 65.7573C42.6304 65.8111 42.6823 65.8548 42.7422 65.8847C42.802 65.9146 42.8681 65.9299 42.935 65.9294C43.0271 65.9296 43.117 65.9019 43.1931 65.85C43.2365 65.8089 43.2829 65.7713 43.3321 65.7374C44.4979 64.8682 45.4397 63.7335 46.0794 62.4275C46.3208 62.0414 46.4659 61.603 46.5028 61.1492C46.5397 60.6953 46.4671 60.2393 46.2912 59.8193C46.159 59.5659 45.9712 59.3456 45.742 59.1748C45.5128 59.004 45.2479 58.8871 44.9673 58.8329C44.5646 58.7584 44.1505 58.7726 43.7538 58.8743C43.3571 58.9761 42.9873 59.163 42.6702 59.4221C41.7816 60.2857 41.1866 61.4063 40.9688 62.6261C40.939 62.7186 40.939 62.8182 40.9688 62.9107C40.9915 62.9734 41.0284 63.0299 41.0767 63.0759C41.1249 63.1218 41.1832 63.1559 41.2469 63.1755Z" fill="#222222"/>
<path d="M32.8934 62.2025C32.9486 62.1802 32.9987 62.147 33.0408 62.1049C33.0829 62.0629 33.116 62.0127 33.1384 61.9576C33.1781 61.86 33.1781 61.7507 33.1384 61.6531C32.7656 60.8021 32.6572 59.8588 32.8272 58.9455C32.903 58.5604 33.1221 58.2183 33.4404 57.9885C33.7587 57.7587 34.1523 57.6583 34.5418 57.7076C34.8304 57.8096 35.0794 58.0002 35.253 58.2523C35.4266 58.5044 35.516 58.805 35.5083 59.111C35.4557 59.8519 35.1863 60.561 34.7338 61.1499C34.6945 61.2062 34.6697 61.2713 34.6616 61.3394C34.6536 61.4076 34.6624 61.4766 34.6874 61.5405C34.7158 61.623 34.769 61.6946 34.8397 61.7457C34.8852 61.7788 34.9367 61.8024 34.9915 61.8153C35.0462 61.8283 35.1029 61.8301 35.1584 61.8209C35.2138 61.8117 35.2669 61.7915 35.3144 61.7615C35.362 61.7316 35.4032 61.6924 35.4355 61.6464C35.4884 61.5736 35.5281 61.5008 35.5745 61.428C36.0438 60.7441 36.3184 59.9456 36.3689 59.1177C36.383 58.6137 36.2294 58.1193 35.9323 57.712C35.6352 57.3046 35.2113 57.0074 34.7271 56.8669C33.4495 56.5425 32.2844 57.5752 31.9931 58.7337C31.7912 59.8112 31.9062 60.9242 32.3241 61.9377C32.3445 61.9958 32.3777 62.0486 32.4212 62.0922C32.4648 62.1357 32.5175 62.1689 32.5757 62.1893C32.6253 62.2132 32.6794 62.2267 32.7345 62.229C32.7884 62.2272 32.8418 62.2182 32.8934 62.2025Z" fill="#222222"/>
<path d="M33.3433 51.8159C32.7972 52.0119 32.3032 52.3304 31.8993 52.747C31.4954 53.1635 31.1922 53.667 31.0131 54.2189C30.98 54.3277 30.9914 54.4453 31.0447 54.5458C31.0981 54.6462 31.189 54.7215 31.2977 54.7551H31.4235C31.5157 54.7559 31.6057 54.7267 31.6798 54.6717C31.7539 54.6167 31.808 54.5391 31.8339 54.4506C31.9736 54.0278 32.2078 53.6423 32.5186 53.3234C32.8294 53.0046 33.2088 52.7607 33.6279 52.6103C34.0516 52.4732 34.5023 52.442 34.9408 52.5193C35.3793 52.5966 35.7922 52.7802 36.1435 53.0538C36.188 53.0889 36.239 53.1147 36.2936 53.1298C36.3482 53.1448 36.4053 53.1488 36.4615 53.1414C36.5177 53.134 36.5718 53.1154 36.6206 53.0867C36.6695 53.058 36.7121 53.0198 36.7459 52.9743C36.8158 52.8847 36.8474 52.771 36.8338 52.6581C36.8201 52.5453 36.7624 52.4424 36.6731 52.372C36.2071 52.0116 35.6591 51.7722 35.0781 51.6752C34.4971 51.5782 33.9011 51.6265 33.3433 51.8159Z" fill="#222222"/>
<path d="M47.8006 54.9735C47.7454 54.9862 47.6932 55.0095 47.647 55.0423C47.6008 55.075 47.5616 55.1166 47.5314 55.1645C47.5013 55.2125 47.4809 55.2659 47.4715 55.3217C47.462 55.3775 47.4636 55.4347 47.4762 55.4899C47.4888 55.5451 47.5121 55.5973 47.5449 55.6434C47.5777 55.6896 47.6192 55.7289 47.6672 55.759C47.7151 55.7891 47.7685 55.8095 47.8244 55.819C47.8802 55.8285 47.9373 55.8269 47.9925 55.8143C48.3654 55.7247 48.7557 55.7391 49.121 55.8558C49.4863 55.9725 49.8127 56.1871 50.0646 56.4762C50.3079 56.7718 50.47 57.1256 50.535 57.5029C50.6 57.8801 50.5656 58.2678 50.4353 58.6277C50.4139 58.6798 50.403 58.7357 50.4034 58.792C50.4039 58.8483 50.4155 58.904 50.4377 58.9558C50.4599 59.0076 50.4922 59.0544 50.5327 59.0935C50.5732 59.1327 50.6211 59.1634 50.6736 59.1838C50.7242 59.2042 50.778 59.2154 50.8325 59.2169C50.9186 59.2182 51.003 59.1928 51.0742 59.1442C51.1453 59.0956 51.1996 59.0262 51.2297 58.9455C51.4178 58.4434 51.4703 57.9008 51.382 57.372C51.2936 56.8432 51.0676 56.347 50.7266 55.9334C50.3753 55.5185 49.9159 55.2091 49.3993 55.0396C48.8828 54.8702 48.3293 54.8473 47.8006 54.9735Z" fill="#222222"/>
<path d="M22.5198 65.4595C22.6168 65.4613 22.7103 65.4964 22.7846 65.5588C22.9074 65.4946 23.0267 65.4239 23.142 65.347C23.7763 64.9069 24.2411 64.2632 24.459 63.5226C24.677 62.7821 24.6351 61.9892 24.3403 61.2758C24.2448 61.0701 24.1248 60.8767 23.9828 60.6998C23.9176 60.7164 23.8493 60.7164 23.7842 60.6998C23.7286 60.6889 23.6758 60.6668 23.6288 60.6351C23.5819 60.6033 23.5418 60.5625 23.511 60.5149C23.4801 60.4674 23.4591 60.4142 23.4492 60.3584C23.4392 60.3026 23.4406 60.2454 23.4532 60.1901V60.1504C22.9804 59.7683 22.4729 59.4314 21.9372 59.1442C21.6327 58.9721 21.3282 58.7999 21.0502 58.608C20.2255 58.0461 19.5206 57.3261 18.9763 56.4897C18.432 55.6534 18.0591 54.7173 17.8792 53.7358C17.8557 53.6274 17.7913 53.5323 17.6993 53.4703C17.6074 53.4083 17.4951 53.3842 17.3858 53.4029C17.2766 53.4217 17.1788 53.482 17.1128 53.5711C17.0469 53.6602 17.0179 53.7714 17.0319 53.8814C17.2323 54.977 17.6479 56.022 18.2546 56.956C18.8614 57.89 19.6473 58.6945 20.5669 59.3229C20.8648 59.5215 21.1892 59.7069 21.5069 59.8922C22.3741 60.3887 23.195 60.8587 23.5525 61.6266C23.7617 62.159 23.7867 62.7461 23.6236 63.2944C23.4604 63.8426 23.1185 64.3205 22.6522 64.6519C22.148 64.9648 21.5712 65.1414 20.9783 65.1646C20.3853 65.1879 19.7965 65.0568 19.2694 64.7843C18.1454 64.2231 17.2531 63.2863 16.7472 62.1364C16.2074 60.9534 15.8246 59.7049 15.6086 58.4226C15.584 58.3111 15.5162 58.214 15.4199 58.1525C15.3237 58.0911 15.207 58.0703 15.0956 58.0949C14.9841 58.1195 14.8869 58.1874 14.8255 58.2836C14.764 58.3798 14.7433 58.4965 14.7679 58.608C14.9933 59.9578 15.3985 61.2714 15.9727 62.5137C16.565 63.8414 17.6022 64.9207 18.9053 65.5654C19.5398 65.8617 20.2308 66.0175 20.931 66.0222C21.3254 66.0243 21.7179 65.9686 22.0961 65.8567C22.1029 65.749 22.1505 65.6479 22.2292 65.5741C22.3079 65.5003 22.4119 65.4593 22.5198 65.4595Z" fill="#222222"/>
<path d="M56.1357 63.3279H56.0894H55.9967C54.9182 64.5376 53.6825 65.5974 52.3226 66.4789L52.0049 66.6775C51.1499 67.1337 50.3868 67.7442 49.7541 68.4781C49.0127 69.4314 48.7876 70.9871 49.6813 71.9403C49.9183 72.1776 50.2002 72.3653 50.5104 72.4926C50.8207 72.6199 51.1532 72.6842 51.4885 72.6817C51.6195 72.6836 51.7503 72.6725 51.8791 72.6486L52.0843 72.6089C52.0795 72.523 52.1002 72.4376 52.1438 72.3634C52.1874 72.2892 52.2519 72.2296 52.3293 72.1919C52.3787 72.1671 52.4326 72.1524 52.4878 72.1486C52.543 72.1448 52.5985 72.1521 52.6508 72.17C52.7032 72.1878 52.7515 72.216 52.7929 72.2527C52.8343 72.2894 52.868 72.334 52.8919 72.3838C53.2227 72.2606 53.5436 72.1123 53.8518 71.9403C56.2537 70.6064 58.2348 68.6276 59.5714 66.2274C59.6224 66.1343 59.6377 66.0259 59.6145 65.9223C59.5914 65.8188 59.5314 65.7272 59.4457 65.6647L59.108 65.4264C59.0626 65.3933 59.011 65.3697 58.9562 65.3568C58.9015 65.3439 58.8448 65.342 58.7893 65.3512C58.7339 65.3605 58.6808 65.3806 58.6333 65.4106C58.5857 65.4405 58.5446 65.4797 58.5123 65.5257C58.479 65.5717 58.4552 65.6238 58.4423 65.6791C58.4293 65.7343 58.4273 65.7915 58.4366 65.8475C58.4458 65.9035 58.466 65.9571 58.496 66.0053C58.5261 66.0534 58.5653 66.0952 58.6115 66.1281C57.3561 68.242 55.5601 69.9831 53.4083 71.1724C52.8841 71.4759 52.3104 71.6844 51.7136 71.7881C51.4577 71.8267 51.1964 71.8062 50.9497 71.7281C50.703 71.6501 50.4775 71.5166 50.2903 71.3379C49.7343 70.7487 49.9064 69.6498 50.4161 68.9878C50.9922 68.341 51.678 67.801 52.4418 67.3925L52.7662 67.1939C54.756 65.9122 56.4855 64.2658 57.8635 62.3415C57.8967 62.2955 57.9205 62.2434 57.9335 62.1882C57.9465 62.1329 57.9484 62.0756 57.9392 62.0196C57.93 61.9637 57.9098 61.9101 57.8797 61.8619C57.8497 61.8138 57.8104 61.772 57.7642 61.7391C57.6699 61.6744 57.554 61.6493 57.4414 61.6691C57.3287 61.6889 57.2284 61.7521 57.1618 61.845C56.983 62.0966 56.7778 62.3349 56.5859 62.5798L56.5461 62.9638C56.5308 63.0628 56.4814 63.1533 56.4065 63.2197C56.3316 63.2862 56.2358 63.3244 56.1357 63.3279Z" fill="#222222"/>
<path d="M23.7769 60.68C23.8421 60.6965 23.9104 60.6965 23.9755 60.68C24.0522 60.6598 24.1219 60.6189 24.1768 60.5616C24.2317 60.5044 24.2697 60.4331 24.2867 60.3556C24.8957 57.4693 25.4849 54.5831 26.074 51.6836C26.4139 50.0286 26.7537 48.367 27.0935 46.6988C36.297 46.9549 45.4784 47.7373 54.5926 49.0423C55.2523 49.0938 55.8858 49.3225 56.4263 49.7042C56.9228 50.2074 56.8963 51.101 56.8235 52.0411C56.6249 53.8637 56.4373 55.6798 56.2608 57.4892C56.0754 59.2765 55.8967 61.0639 55.7047 62.8579C55.6926 62.9535 55.7144 63.0503 55.7665 63.1314C55.8185 63.2125 55.8974 63.2727 55.9894 63.3014H56.0821H56.1284C56.2349 63.302 56.3379 63.2631 56.4174 63.1922C56.4969 63.1213 56.5472 63.0234 56.5587 62.9175L56.5984 62.5335C56.7793 60.8653 56.9515 59.2015 57.1148 57.5422C57.3001 55.7283 57.4789 53.9145 57.6775 52.0874C57.7503 51.1606 57.8496 49.8962 57.0155 49.0489C56.3482 48.541 55.548 48.2374 54.7117 48.175C45.4448 46.8437 36.1081 46.0546 26.7493 45.8118C26.6476 45.8005 26.5456 45.8295 26.4652 45.8927C26.3847 45.9558 26.3322 46.048 26.319 46.1494C25.9483 47.9147 25.5842 49.6954 25.2267 51.4916C24.6353 54.369 24.0417 57.2376 23.4459 60.0974V60.1371C23.4281 60.1946 23.4227 60.2552 23.4301 60.3148C23.4375 60.3745 23.4575 60.432 23.4888 60.4833C23.5201 60.5347 23.562 60.5788 23.6117 60.6127C23.6614 60.6466 23.7177 60.6695 23.7769 60.68Z" fill="#222222"/>
<path d="M49.3102 75.7798C50.2305 75.7543 51.1342 75.5284 51.9582 75.1178C52.4072 74.8395 52.747 74.4154 52.9205 73.9164C53.0941 73.4175 53.0909 72.8741 52.9114 72.3772C52.8874 72.3273 52.8538 72.2827 52.8124 72.246C52.771 72.2093 52.7227 72.1812 52.6703 72.1633C52.6179 72.1455 52.5625 72.1382 52.5073 72.1419C52.4521 72.1457 52.3982 72.1604 52.3487 72.1852C52.2714 72.2229 52.2069 72.2825 52.1633 72.3567C52.1197 72.4309 52.099 72.5163 52.1038 72.6023C52.1107 72.6566 52.1241 72.7099 52.1435 72.7611C52.2288 73.0695 52.2102 73.3974 52.0906 73.6941C51.9709 73.9908 51.7569 74.2399 51.4815 74.4029C50.7767 74.7361 50.0101 74.9188 49.2308 74.9391C40.7966 75.5774 32.3158 74.7304 24.1744 72.4368L24.0553 72.397C23.3544 72.2493 22.7162 71.8886 22.2282 71.3643C21.8178 70.795 21.7913 69.9808 22.162 68.8819C22.2282 68.6701 22.3076 68.4648 22.3804 68.2596C22.7055 67.5137 22.8938 66.7155 22.9365 65.903C22.9381 65.8392 22.9245 65.7759 22.8969 65.7184C22.8692 65.6608 22.8284 65.6107 22.7776 65.572C22.7034 65.5095 22.6099 65.4745 22.5128 65.4727C22.406 65.4723 22.3029 65.5124 22.2244 65.5848C22.1458 65.6573 22.0975 65.7567 22.0892 65.8632C22.086 65.874 22.086 65.8855 22.0892 65.8963C22.0391 66.609 21.8666 67.3076 21.5794 67.9617C21.5 68.1802 21.4206 68.392 21.3477 68.6237C20.8843 70.0073 20.9505 71.0731 21.5331 71.8741C22.1219 72.5488 22.9142 73.0135 23.7905 73.198L23.9295 73.2444C30.3932 75.0621 37.0748 75.9887 43.7892 75.9982C45.6229 75.9982 47.4699 75.9056 49.3102 75.7798Z" fill="#222222"/>
<path d="M44.1269 37.987C44.0477 37.9054 44.0033 37.7962 44.0033 37.6825C44.0033 37.5688 44.0477 37.4595 44.1269 37.3779L44.3255 37.1926C43.988 36.3255 43.5574 35.4976 43.0413 34.7234C41.8715 33.0361 40.3346 31.636 38.5459 30.6281C36.7572 29.6203 34.7634 29.031 32.7142 28.9045C27.5838 28.653 22.1224 31.5525 18.4814 36.4446C15.0788 41.0785 13.4701 46.7517 12.3448 51.6702C12.0469 52.9479 11.7755 54.2387 11.504 55.5164C10.6633 59.4883 9.7961 63.5926 8.30663 67.4321C6.69799 71.457 4.33468 75.2568 2.09054 78.9308C2.04216 79.0021 2.01628 79.0863 2.01628 79.1724C2.01628 79.2586 2.04216 79.3427 2.09054 79.414C3.09014 80.7777 4.99005 80.738 6.02938 80.6387C6.50601 80.5791 6.97602 80.4865 7.43279 80.3872C8.19604 80.1923 8.98203 80.101 9.76962 80.1157C11.0083 80.2524 12.2088 80.6278 13.3046 81.2213C13.7283 81.4199 14.152 81.6118 14.5757 81.784C16.444 82.4881 18.3777 83.0047 20.3482 83.3264L21.1294 83.4786C22.8373 83.8096 24.6048 84.1406 26.3392 84.3326C27.9082 84.4782 29.2917 84.5511 30.5561 84.5511H31.0592C32.6546 84.5511 34.4552 84.3458 35.6932 83.1741C37.6262 81.453 37.368 78.5733 36.8649 75.985C36.8555 75.929 36.8348 75.8756 36.804 75.828C36.7732 75.7803 36.7331 75.7395 36.686 75.7079C36.6389 75.6763 36.5859 75.6546 36.5301 75.6442C36.4744 75.6338 36.4171 75.6348 36.3618 75.6473C36.2505 75.6697 36.1526 75.7352 36.0894 75.8294C36.0262 75.9236 36.0027 76.039 36.0242 76.1505C36.4809 78.5005 36.7325 81.1021 35.1106 82.5452C34.1044 83.5184 32.5024 83.6706 31.0725 83.6905C29.5382 83.7017 28.0045 83.6288 26.4783 83.472C24.7836 83.3065 23.0359 82.9623 21.3478 82.6313L20.5601 82.479C18.6466 82.1682 16.7685 81.6693 14.953 80.9896C14.536 80.8174 14.1255 80.6321 13.7151 80.4401C12.5212 79.8014 11.2153 79.3991 9.86892 79.2552C9.00788 79.2356 8.14818 79.3336 7.31364 79.5464C6.87011 79.6391 6.41995 79.7318 5.98966 79.7847C5.32767 79.8642 3.85142 79.9436 3.02394 79.1228C5.26146 75.5017 7.55195 71.7483 9.14735 67.7565C10.6633 63.8772 11.5371 59.7332 12.3845 55.7282C12.6559 54.4506 12.9273 53.1729 13.2186 51.8953C14.3307 47.0496 15.9063 41.4889 19.2162 36.9741C22.6917 32.3071 27.8552 29.5533 32.7142 29.785C34.635 29.883 36.5068 30.4258 38.182 31.3705C39.8572 32.3153 41.2902 33.6363 42.3678 35.2293C43.4454 36.8223 44.1383 38.6439 44.3919 40.5503C44.6455 42.4568 44.4528 44.3961 43.829 46.2155C43.8102 46.2689 43.8021 46.3256 43.8052 46.3821C43.8084 46.4387 43.8226 46.4941 43.8473 46.5452C43.8719 46.5963 43.9063 46.642 43.9486 46.6797C43.9909 46.7174 44.0403 46.7463 44.0938 46.7649C44.1468 46.7836 44.203 46.7916 44.2591 46.7884C44.3153 46.7852 44.3702 46.7709 44.4207 46.7462C44.4712 46.7216 44.5163 46.6871 44.5534 46.6449C44.5905 46.6026 44.6188 46.5534 44.6366 46.5001C45.5585 43.7693 45.5748 40.8139 44.683 38.073C44.5954 38.1278 44.491 38.1493 44.3889 38.1335C44.2868 38.1177 44.1938 38.0657 44.1269 37.987Z" fill="#222222"/>
<path d="M71.1171 81.9428C71.9446 80.7844 71.9777 79.05 71.223 77.3089C70.8318 76.4913 70.3594 75.7151 69.813 74.992C69.4886 74.522 69.151 74.0321 68.8465 73.5224C66.7744 70.1131 66.1985 65.6646 67.1385 59.528C67.3305 58.204 67.5688 56.8801 67.8005 55.6289C68.4625 52.127 69.0914 48.4993 68.8663 44.8518C68.5287 40.2179 66.3706 34.5712 61.3262 32.5521C61.2336 32.5124 61.1343 32.4859 61.0416 32.4528L60.6643 32.8963C60.6246 32.9439 60.575 32.9821 60.519 33.0084C60.4629 33.0347 60.4018 33.0484 60.3399 33.0486C60.2371 33.05 60.1377 33.0121 60.0618 32.9427C60.0184 32.9069 59.9824 32.8628 59.9562 32.813C59.9299 32.7632 59.9139 32.7086 59.9089 32.6526C59.904 32.5965 59.9103 32.54 59.9275 32.4864C59.9446 32.4327 59.9723 32.3831 60.0089 32.3403C60.0618 32.2807 60.1082 32.2211 60.1611 32.1681C58.4346 31.7089 56.6324 31.6076 54.8652 31.8702C50.8667 32.4325 47.1637 34.2932 44.3263 37.1661L44.1277 37.3515C44.0658 37.427 44.0314 37.5214 44.0302 37.6191C44.029 37.7168 44.0611 37.8119 44.1212 37.889C44.1813 37.966 44.2658 38.0203 44.3608 38.0429C44.4558 38.0655 44.5557 38.0552 44.6441 38.0135C44.6825 37.9914 44.718 37.9647 44.75 37.934C47.4771 35.0883 51.0815 33.2418 54.9844 32.6911C57.0179 32.3797 59.0975 32.608 61.0151 33.3531C65.702 35.2265 67.7211 40.7541 68.019 44.9114C68.2374 48.4464 67.5887 52.0211 66.9664 55.5031C66.7347 56.7874 66.4964 58.1511 66.3044 59.4287C65.371 65.7771 65.9536 70.4044 68.1315 73.9924C68.436 74.522 68.7935 75.0251 69.1311 75.5083C69.6422 76.1872 70.0856 76.9144 70.4551 77.6796C71.1171 79.136 71.1171 80.5527 70.4551 81.4596C69.8037 82.1928 68.9802 82.7524 68.0587 83.0881L67.9925 83.1212C67.0789 83.5117 66.172 83.9156 65.2585 84.326L62.5575 85.5176C61.3593 86.0207 60.2141 86.4377 59.2476 86.0207C59.0173 85.9001 58.796 85.7629 58.5856 85.6102C58.1963 85.2981 57.7449 85.0724 57.2616 84.9483C56.0965 84.7232 55.0704 85.6102 54.2231 86.3252C53.7067 86.7687 52.7204 87.4506 51.9525 86.9872C51.6025 86.6896 51.3433 86.2996 51.2044 85.8618C50.9197 85.1998 50.5954 84.4782 49.8142 84.2796C49.4989 84.2159 49.174 84.2164 48.8589 84.2813C48.5438 84.3461 48.245 84.4739 47.9805 84.657L47.7422 84.7828C45.9481 85.5908 43.9151 85.6919 42.0496 85.066C40.1842 84.4401 38.6236 83.1332 37.6799 81.4066C37.6552 81.3557 37.6207 81.3102 37.5783 81.2727C37.536 81.2351 37.4867 81.2063 37.4332 81.1879C37.3797 81.1694 37.3231 81.1617 37.2666 81.1652C37.2101 81.1686 37.1549 81.1832 37.104 81.208C37.0024 81.2593 36.9249 81.3481 36.8878 81.4557C36.8507 81.5632 36.857 81.681 36.9054 81.784C37.9507 83.7164 39.6905 85.18 41.7733 85.8792C43.8561 86.5783 46.1266 86.4609 48.1262 85.5507L48.3777 85.4249C48.7241 85.1692 49.1551 85.0555 49.5825 85.1071C49.9466 85.2064 50.1452 85.5904 50.4166 86.2126C50.6202 86.8162 51.0008 87.3444 51.5089 87.7286C51.8142 87.907 52.1616 88.0007 52.5152 88C53.3801 87.9324 54.1934 87.5621 54.8123 86.9541C55.5272 86.3384 56.3348 85.6301 57.1027 85.7956C57.4647 85.9034 57.802 86.0811 58.0957 86.3186C58.3483 86.4989 58.6138 86.6604 58.8901 86.8018C60.2604 87.4108 61.8293 86.7488 62.8621 86.3053C63.769 85.9214 64.6759 85.5109 65.5762 85.1071C66.4765 84.7033 67.3901 84.2995 68.3102 83.9023L68.3897 83.8692C69.4513 83.4761 70.3916 82.8119 71.1171 81.9428Z" fill="#222222"/>
<path d="M36.3552 42.012C36.5652 42.0033 36.771 41.9505 36.9592 41.8569C37.1474 41.7634 37.3138 41.6313 37.4475 41.4691C37.6429 41.1822 37.776 40.8574 37.8381 40.5159C37.9683 40.1636 38.0398 39.7924 38.0499 39.417C38.0485 39.2112 38.0056 39.0077 37.9237 38.8189C37.8418 38.6301 37.7226 38.4597 37.5733 38.3181C37.5608 38.2408 37.5289 38.1679 37.4806 38.1062C37.4092 38.018 37.3059 37.9615 37.193 37.9491C37.0802 37.9367 36.967 37.9694 36.8782 38.04C36.3374 38.4728 35.8874 39.0083 35.5542 39.6156C35.3068 39.9878 35.2011 40.4364 35.2563 40.88C35.2938 41.1616 35.4209 41.4237 35.6188 41.6275C35.8166 41.8314 36.0748 41.9661 36.3552 42.012ZM35.5873 40.3107C35.7462 40.0525 35.8985 39.7811 36.0573 39.5096C36.2162 39.2382 36.3883 38.9403 36.5538 38.6689C36.583 38.6207 36.6215 38.5787 36.667 38.5455C36.7126 38.5123 36.7643 38.4886 36.8192 38.4756C36.8741 38.4627 36.931 38.4608 36.9866 38.4701C37.0422 38.4794 37.0954 38.4998 37.143 38.5299C37.2226 38.5788 37.2835 38.653 37.3159 38.7406C37.3483 38.8283 37.3504 38.9242 37.3217 39.0132C37.3856 39.0642 37.4333 39.1326 37.4591 39.2101C37.4849 39.2876 37.4878 39.371 37.4674 39.4501C37.3953 39.703 37.2907 39.9456 37.1562 40.1716C37.21 40.2362 37.2437 40.3152 37.2531 40.3987C37.2625 40.4823 37.2472 40.5667 37.2092 40.6417C37.1496 40.7608 37.1033 40.8734 37.0503 40.9925C36.9969 41.1351 36.935 41.2744 36.865 41.4096C36.8284 41.4797 36.7733 41.5385 36.7056 41.5794C36.6378 41.6203 36.5601 41.6417 36.481 41.6412C36.4141 41.6425 36.348 41.6266 36.289 41.5949C36.1042 41.4 35.9522 41.1764 35.8389 40.9329C35.8027 40.9249 35.7673 40.9138 35.733 40.8998C35.6832 40.8722 35.6393 40.8351 35.604 40.7904C35.5687 40.7458 35.5426 40.6946 35.5272 40.6398C35.5118 40.585 35.5074 40.5277 35.5144 40.4712C35.5213 40.4147 35.5393 40.3601 35.5675 40.3107H35.5873Z" fill="#222222"/>
<path d="M41.2808 39.8671C41.2712 39.7844 41.239 39.706 41.1875 39.6406C41.1361 39.5751 41.0676 39.5252 40.9895 39.4964C40.9132 39.4744 40.8325 39.4732 40.7556 39.493C40.6788 39.5128 40.6087 39.5528 40.5526 39.6089C39.7214 40.4401 39.1686 41.5087 38.9704 42.6673C38.785 43.5213 39.2021 43.839 39.3411 43.8986C39.4864 44.007 39.663 44.0651 39.8442 44.0641C40.0859 44.0523 40.3177 43.9642 40.5062 43.8125C40.7049 43.622 40.8685 43.3979 40.9895 43.1506C41.3231 42.309 41.3991 41.3874 41.2079 40.5026C41.2518 40.4538 41.2841 40.3957 41.3025 40.3327C41.3208 40.2696 41.3247 40.2033 41.3139 40.1385L41.2808 39.8671ZM40.9365 42.5481C40.8373 42.716 40.6999 42.8581 40.5354 42.9628C40.3709 43.0675 40.184 43.1318 39.9899 43.1506C39.9237 43.2035 39.8707 43.2168 39.8178 43.1837C39.7648 43.1506 39.8178 43.1837 39.8178 43.1307C39.7694 43.1372 39.7204 43.1372 39.6721 43.1307C39.6101 43.1166 39.5519 43.0892 39.5016 43.0503C39.4513 43.0115 39.4101 42.9621 39.3808 42.9056C39.3532 42.8477 39.3389 42.7844 39.3389 42.7203C39.3389 42.6561 39.3532 42.5928 39.3808 42.5349C39.4649 42.3441 39.5716 42.1641 39.6986 41.9987C39.7676 41.9066 39.8696 41.8449 39.9833 41.8266V41.7736C40.0388 41.7017 40.115 41.6485 40.2017 41.6214C40.2772 41.457 40.3635 41.2978 40.4599 41.1447C40.4698 41.3012 40.4698 41.4582 40.4599 41.6148C40.5019 41.6268 40.542 41.6446 40.579 41.6677C40.626 41.7005 40.6656 41.7428 40.6952 41.7918C40.7249 41.8408 40.7439 41.8955 40.7512 41.9524C40.8029 41.9789 40.8488 42.0154 40.8862 42.0599C40.9236 42.1044 40.9517 42.1559 40.969 42.2113C40.9862 42.2668 40.9922 42.3252 40.9867 42.383C40.9811 42.4408 40.964 42.497 40.9365 42.5481Z" fill="#222222"/>
<path d="M48.4893 42.0846C48.7541 41.7073 49.0189 41.3234 49.2771 40.9394L49.7339 40.2774L51.1571 42.0184C51.1924 42.0624 51.2361 42.0989 51.2857 42.1257C51.3353 42.1526 51.3897 42.1693 51.4458 42.1748C51.5019 42.1804 51.5586 42.1747 51.6124 42.1581C51.6663 42.1414 51.7163 42.1142 51.7595 42.078C51.8482 42.0055 51.9049 41.901 51.9173 41.787C51.9296 41.6731 51.8968 41.5589 51.8257 41.469L50.0384 39.2977C49.9977 39.2441 49.9444 39.2015 49.8831 39.1737C49.8218 39.146 49.7546 39.134 49.6875 39.1388C49.6221 39.14 49.5579 39.1569 49.5003 39.188C49.4428 39.2191 49.3934 39.2635 49.3565 39.3175C49.0917 39.6883 48.8269 40.0788 48.5687 40.4628C48.3106 40.8467 48.0524 41.2241 47.7876 41.5882C47.7229 41.6825 47.6978 41.7984 47.7176 41.911C47.7374 42.0236 47.8005 42.124 47.8935 42.1906C47.9647 42.2422 48.0505 42.27 48.1385 42.27C48.2075 42.2695 48.2754 42.2524 48.3365 42.2202C48.3976 42.1879 48.45 42.1414 48.4893 42.0846Z" fill="#222222"/>
<path d="M53.7923 41.8398C53.8704 41.8394 53.9471 41.8184 54.0145 41.7789C54.082 41.7394 54.1377 41.6827 54.1762 41.6147L55.3943 39.3706L56.3145 40.2576C56.758 40.6879 57.2015 41.1182 57.6384 41.5816C57.7262 41.6597 57.8415 41.6998 57.9588 41.693C58.0761 41.6861 58.1859 41.633 58.264 41.5452C58.3422 41.4574 58.3822 41.3422 58.3754 41.2249C58.3686 41.1076 58.3154 40.9977 58.2276 40.9196C57.7708 40.4959 57.3273 40.0657 56.9036 39.642C56.48 39.2183 56.0232 38.788 55.5797 38.3577C55.5324 38.3136 55.4755 38.281 55.4134 38.2626C55.3514 38.2442 55.2859 38.2405 55.2222 38.2518C55.1569 38.2615 55.0948 38.2863 55.0407 38.3242C54.9867 38.3621 54.9423 38.4122 54.9111 38.4703L53.4216 41.2043C53.3691 41.3047 53.3577 41.4217 53.3898 41.5304C53.422 41.639 53.495 41.731 53.5937 41.7868C53.6552 41.8189 53.723 41.837 53.7923 41.8398Z" fill="#222222"/>
<path d="M60.061 32.9493C60.1368 33.0187 60.2362 33.0566 60.339 33.0552C60.4009 33.055 60.4621 33.0413 60.5181 33.015C60.5741 32.9887 60.6237 32.9505 60.6634 32.9029L61.0407 32.4594C62.7553 30.4403 64.4698 28.3419 65.4694 25.8395C66.6809 22.7017 66.575 19.5904 65.1782 17.2999C63.3908 14.3342 59.3195 12.7455 55.4999 13.5266C51.806 14.2747 48.88 16.671 46.9602 18.7232C45.0272 14.7513 40.6448 12.2622 36.6927 12.9308C35.0827 13.2255 33.5858 13.9605 32.3682 15.0542C31.1506 16.148 30.2598 17.5577 29.7948 19.127C29.3595 20.7051 29.377 22.3738 29.8453 23.9425C30.3135 25.5111 31.2136 26.9163 32.4427 27.9976C32.5305 28.0722 32.6444 28.1089 32.7592 28.0996C32.874 28.0903 32.9805 28.0358 33.0551 27.948C33.1297 27.8602 33.1664 27.7464 33.1571 27.6315C33.1478 27.5167 33.0932 27.4103 33.0054 27.3356C31.8859 26.3706 31.0645 25.1065 30.6374 23.6915C30.2103 22.2765 30.1953 20.7691 30.594 19.3458C30.9927 17.9226 31.7887 16.6424 32.8887 15.6551C33.9887 14.6679 35.3473 14.0146 36.8053 13.7716C40.572 13.1096 44.7955 15.7178 46.4107 19.6566C46.437 19.7246 46.4809 19.7843 46.5379 19.8297C46.5949 19.875 46.663 19.9044 46.7351 19.9148C46.8077 19.9276 46.8823 19.9215 46.9519 19.8971C47.0214 19.8728 47.0835 19.831 47.1323 19.7758C48.9395 17.7302 51.8854 15.1419 55.6389 14.3607C59.1143 13.6524 62.8016 15.0757 64.4103 17.7368C65.668 19.8022 65.7342 22.6355 64.6353 25.5152C63.6423 27.9976 61.8682 30.116 60.1272 32.1681C60.0742 32.2211 60.0279 32.2807 59.9749 32.3402C59.9391 32.3853 59.9128 32.4372 59.8977 32.4927C59.8826 32.5482 59.8789 32.6063 59.887 32.6633C59.895 32.7203 59.9146 32.775 59.9445 32.8242C59.9744 32.8734 60.0141 32.9159 60.061 32.9493Z" fill="#222222"/>
<path d="M60.4577 25.8131C60.5204 25.8409 60.5878 25.8567 60.6563 25.8594C60.736 25.8585 60.8138 25.8358 60.8815 25.7938C60.9492 25.7518 61.0041 25.6921 61.0403 25.6211C61.4482 24.7735 61.577 23.8184 61.4081 22.8931C61.2392 21.9677 60.7813 21.1197 60.1002 20.4709C59.3948 19.8474 58.5038 19.4733 57.5647 19.4063C56.6255 19.3393 55.6905 19.5831 54.9036 20.1002C54.8571 20.1323 54.8174 20.1733 54.7867 20.2209C54.7561 20.2684 54.7351 20.3214 54.7249 20.3771C54.7148 20.4327 54.7157 20.4898 54.7276 20.5451C54.7395 20.6004 54.7622 20.6528 54.7944 20.6993C54.8266 20.7458 54.8676 20.7855 54.9151 20.8162C54.9626 20.8468 55.0157 20.8678 55.0713 20.878C55.127 20.8881 55.184 20.8872 55.2393 20.8753C55.2946 20.8633 55.347 20.8406 55.3935 20.8085C56.0204 20.4047 56.7615 20.2155 57.5053 20.2692C58.2491 20.3229 58.9553 20.6167 59.5177 21.1064C60.0574 21.6295 60.4203 22.3082 60.5556 23.0476C60.6909 23.787 60.5919 24.5502 60.2724 25.2306C60.246 25.2809 60.2299 25.336 60.225 25.3926C60.22 25.4492 60.2264 25.5063 60.2436 25.5605C60.2608 25.6146 60.2886 25.6648 60.3254 25.7082C60.3621 25.7516 60.4071 25.7872 60.4577 25.8131Z" fill="#222222"/>
<path d="M38.8037 18.2466C38.1709 18.2136 37.5399 18.3399 36.9685 18.614C36.3972 18.8881 35.9038 19.3012 35.5335 19.8155C35.1642 20.3483 34.9664 20.9811 34.9664 21.6293C34.9664 22.2776 35.1642 22.9104 35.5335 23.4432C35.5722 23.4965 35.6229 23.5399 35.6816 23.5698C35.7403 23.5997 35.8052 23.6153 35.8711 23.6153C35.9671 23.6139 36.06 23.5813 36.1359 23.5226C36.2262 23.4531 36.2852 23.3507 36.3001 23.2378C36.315 23.1249 36.2845 23.0107 36.2153 22.9202C35.9529 22.5347 35.8126 22.0791 35.8126 21.6128C35.8126 21.1464 35.9529 20.6909 36.2153 20.3054C36.5036 19.9107 36.886 19.5944 37.3276 19.3852C37.7692 19.1759 38.2562 19.0804 38.7441 19.1072C39.745 19.1744 40.6868 19.6052 41.3921 20.3186C41.4737 20.3978 41.5829 20.4422 41.6966 20.4422C41.8103 20.4422 41.9196 20.3978 42.0011 20.3186C42.0412 20.2786 42.0729 20.2312 42.0946 20.1789C42.1163 20.1267 42.1274 20.0706 42.1274 20.0141C42.1274 19.9575 42.1163 19.9015 42.0946 19.8492C42.0729 19.797 42.0412 19.7495 42.0011 19.7096C41.1516 18.8451 40.0132 18.3242 38.8037 18.2466Z" fill="#222222"/>
<path d="M41.9421 25.8131C41.8232 27.0182 41.9683 28.2346 42.3673 29.3778C42.7663 30.5211 43.4096 31.5637 44.2525 32.433C44.592 32.816 45.0663 33.0532 45.5764 33.095C46.2255 32.9976 46.8153 32.6626 47.2314 32.155C47.3506 32.0424 47.4697 31.9299 47.6154 31.8041C48.6591 30.856 49.6285 29.8291 50.5149 28.7325C50.9651 28.15 51.9051 26.9451 51.3755 25.7337C51.1913 25.3465 50.8988 25.021 50.5334 24.7966C50.168 24.5721 49.7454 24.4585 49.3167 24.4693C48.8417 24.444 48.3673 24.5281 47.93 24.7152C47.4927 24.9022 47.1042 25.1873 46.7945 25.5484C46.7383 25.2068 46.6288 24.8762 46.4701 24.5686C46.346 24.1758 46.112 23.8268 45.7958 23.5627C45.4797 23.2986 45.0945 23.1305 44.6859 23.0783C44.2773 23.0261 43.8622 23.092 43.4898 23.2681C43.1174 23.4442 42.8032 23.7232 42.5843 24.0721C42.2297 24.5972 42.003 25.198 41.9223 25.8264L41.9421 25.8131ZM42.7961 25.9257C42.8518 25.4342 43.0169 24.9614 43.2794 24.5421C43.3967 24.3625 43.5516 24.2103 43.7332 24.0961C43.9149 23.9818 44.1191 23.9082 44.3319 23.8802C44.6272 23.902 44.9097 24.0094 45.1448 24.1893C45.38 24.3692 45.5576 24.6137 45.6559 24.893C45.8894 25.4462 46.0109 26.0402 46.0134 26.6406V26.9584C46.0215 27.0605 46.0658 27.1563 46.1383 27.2287C46.2108 27.3011 46.3067 27.3452 46.4088 27.3532C46.5109 27.3611 46.6125 27.3324 46.6953 27.2722C46.7782 27.212 46.8368 27.1242 46.8607 27.0246C46.9996 26.5099 47.309 26.0574 47.7382 25.7412C48.1675 25.425 48.6912 25.2637 49.224 25.2836C49.4938 25.2645 49.7632 25.3252 49.9986 25.4582C50.2341 25.5913 50.4252 25.7907 50.548 26.0316C50.8327 26.6936 50.356 27.435 49.7999 28.15C48.9431 29.2081 48.007 30.1996 46.9997 31.1157L46.6025 31.4731C45.7618 32.2543 45.5367 32.4595 44.8152 31.7975C44.0756 31.0219 43.5123 30.0957 43.1639 29.0823C42.8154 28.0688 42.6899 26.9921 42.7961 25.9257Z" fill="#222222"/>
<path d="M24.5317 27.3093H24.5781L27.4776 26.9981C27.5913 26.9848 27.6952 26.9274 27.767 26.8383C27.8388 26.7492 27.8727 26.6354 27.8615 26.5215C27.8483 26.4083 27.7906 26.305 27.7013 26.2343C27.6119 26.1635 27.4981 26.1311 27.3849 26.1442L24.4854 26.4553C24.3713 26.4614 24.2643 26.5127 24.1879 26.5977C24.1116 26.6828 24.0721 26.7946 24.0783 26.9088C24.0844 27.0229 24.1356 27.1299 24.2207 27.2062C24.3057 27.2826 24.4176 27.322 24.5317 27.3159V27.3093Z" fill="#222222"/>
<path d="M22.652 22.5893C23.976 22.8342 25.2999 23.0792 26.6239 23.3307H26.71C26.8009 23.3298 26.8892 23.3002 26.9622 23.246C27.0352 23.1919 27.0892 23.116 27.1164 23.0292C27.1436 22.9424 27.1426 22.8493 27.1136 22.7631C27.0846 22.677 27.0291 22.6022 26.9549 22.5496L26.4187 22.1722C26.3732 22.1392 26.3216 22.1156 26.2669 22.1026C26.2122 22.0897 26.1555 22.0879 26.1 22.0971C26.0446 22.1063 25.9915 22.1265 25.9439 22.1565C25.8963 22.1864 25.8552 22.2256 25.8229 22.2716C24.8432 22.0796 23.8369 21.9008 22.8373 21.7155C22.7817 21.705 22.7245 21.7055 22.6691 21.7171C22.6136 21.7287 22.5611 21.7512 22.5143 21.7832C22.4676 21.8151 22.4276 21.856 22.3967 21.9035C22.3658 21.9509 22.3446 22.004 22.3342 22.0597C22.3062 22.1721 22.3239 22.291 22.3835 22.3903C22.4431 22.4896 22.5396 22.5612 22.652 22.5893Z" fill="#222222"/>
<path d="M21.8242 17.2933C21.7612 17.3882 21.7384 17.5042 21.7607 17.6158C21.783 17.7275 21.8487 17.8258 21.9434 17.8891C23.2085 18.7236 24.691 19.1679 26.2066 19.1667C26.3231 19.1685 26.4357 19.1244 26.5199 19.0439C26.6041 18.9633 26.6533 18.8529 26.6568 18.7364C26.6568 18.6223 26.6114 18.5129 26.5307 18.4322C26.45 18.3515 26.3406 18.3061 26.2265 18.3061C24.8807 18.3078 23.564 17.9142 22.4399 17.1742C22.3922 17.1398 22.3381 17.1155 22.2807 17.1029C22.2233 17.0902 22.164 17.0895 22.1063 17.1006C22.0486 17.1118 21.9938 17.1346 21.9453 17.1678C21.8968 17.2009 21.8556 17.2436 21.8242 17.2933Z" fill="#222222"/>
<path d="M26.988 15.3207C27.0956 15.3204 27.1993 15.2803 27.2792 15.2082C27.3201 15.1687 27.3526 15.1214 27.3747 15.069C27.3969 15.0167 27.4083 14.9605 27.4083 14.9037C27.4083 14.8468 27.3969 14.7906 27.3747 14.7383C27.3526 14.686 27.3201 14.6387 27.2792 14.5992C26.4186 13.6591 25.7037 12.8449 25.0285 12.0439C24.9547 11.9561 24.8491 11.9012 24.7349 11.8913C24.6207 11.8813 24.5072 11.9172 24.4194 11.9909C24.3317 12.0647 24.2768 12.1703 24.2668 12.2845C24.2569 12.3987 24.2927 12.5122 24.3665 12.5999C25.0285 13.4076 25.7765 14.2284 26.6437 15.1817C26.6874 15.2287 26.7409 15.2656 26.8003 15.2896C26.8598 15.3136 26.9239 15.3242 26.988 15.3207Z" fill="#222222"/>
<path d="M29.292 8.18446C29.2542 8.14218 29.2085 8.10776 29.1574 8.0832C29.1064 8.05865 29.0509 8.04442 28.9943 8.04134C28.9377 8.03827 28.8811 8.04641 28.8277 8.06528C28.7742 8.08416 28.725 8.11341 28.6829 8.15135C28.6037 8.2329 28.5593 8.34213 28.5593 8.45585C28.5593 8.56958 28.6037 8.67883 28.6829 8.76038C29.5502 9.71364 30.4505 10.6669 31.3309 11.5937L32.2246 12.5403C32.3069 12.6181 32.4159 12.6614 32.5291 12.6614C32.6423 12.6614 32.7513 12.6181 32.8336 12.5403C32.9129 12.4588 32.9572 12.3495 32.9572 12.2358C32.9572 12.1221 32.9129 12.0128 32.8336 11.9313L31.9267 11.031C31.0595 10.0777 30.1592 9.1311 29.292 8.18446Z" fill="#222222"/>
<path d="M37.2082 5.34452C37.0951 5.35623 36.9912 5.41223 36.9193 5.5003C36.8473 5.58838 36.8132 5.70135 36.8243 5.81453L37.3274 10.8655C37.3358 10.9732 37.3851 11.0736 37.465 11.1462C37.545 11.2188 37.6497 11.2581 37.7577 11.2561H37.7974C37.8538 11.2511 37.9086 11.2349 37.9586 11.2085C38.0086 11.182 38.0527 11.1458 38.0885 11.102C38.1243 11.0582 38.151 11.0077 38.1669 10.9534C38.1829 10.8992 38.1878 10.8422 38.1814 10.786L37.6783 5.73509C37.6733 5.6785 37.6571 5.62344 37.6308 5.57311C37.6044 5.52279 37.5683 5.47819 37.5246 5.44188C37.4809 5.40557 37.4305 5.37826 37.3762 5.36155C37.3219 5.34484 37.2648 5.33906 37.2082 5.34452Z" fill="#222222"/>
<path d="M43.1736 6.95316L42.6705 11.2892C42.6574 11.4024 42.6898 11.5162 42.7606 11.6055C42.8313 11.6949 42.9346 11.7525 43.0478 11.7658H43.0941C43.1996 11.7666 43.3018 11.7286 43.3811 11.659C43.4604 11.5895 43.5114 11.4932 43.5244 11.3885L44.0275 7.05245C44.0368 6.99507 44.0344 6.9364 44.0204 6.87998C44.0064 6.82356 43.9811 6.77056 43.9461 6.72418C43.911 6.67781 43.8669 6.63901 43.8165 6.61014C43.766 6.58127 43.7102 6.56294 43.6525 6.55622C43.5947 6.54951 43.5362 6.55457 43.4805 6.57109C43.4248 6.58761 43.373 6.61525 43.3282 6.65235C43.2834 6.68944 43.2467 6.73521 43.2201 6.78691C43.1935 6.83861 43.1777 6.89517 43.1736 6.95316Z" fill="#222222"/>
<path d="M48.1053 8.5419C48.0192 9.4091 47.9133 10.2829 47.814 11.1568C47.7147 12.0306 47.6088 12.9044 47.5161 13.8047C47.505 13.9179 47.5392 14.0308 47.6111 14.1189C47.6831 14.207 47.787 14.263 47.9001 14.2747H47.9464C48.0536 14.2737 48.1566 14.2333 48.2359 14.1613C48.3153 14.0893 48.3654 13.9907 48.3767 13.8841C48.4628 13.0169 48.5621 12.1431 48.668 11.2759C48.7739 10.4087 48.8732 9.52164 48.9659 8.62796C48.9773 8.51384 48.9429 8.39987 48.8703 8.31111C48.7977 8.22235 48.6927 8.16606 48.5786 8.15464C48.4645 8.14323 48.3505 8.17762 48.2618 8.25024C48.173 8.32287 48.1167 8.42778 48.1053 8.5419Z" fill="#222222"/>
<path d="M55.0888 11.448H55.1418C55.1979 11.4407 55.252 11.4223 55.301 11.3941C55.35 11.3658 55.3929 11.3282 55.4274 11.2833C55.4618 11.2384 55.487 11.1872 55.5017 11.1325C55.5163 11.0778 55.52 11.0208 55.5125 10.9648L54.9366 6.51622C54.931 6.45939 54.9138 6.40431 54.8861 6.3544C54.8584 6.30448 54.8207 6.26081 54.7754 6.22605C54.7301 6.1913 54.6781 6.16621 54.6227 6.15235C54.5673 6.1385 54.5097 6.13617 54.4533 6.14551C54.3408 6.16196 54.2391 6.22165 54.1699 6.31189C54.1007 6.40213 54.0694 6.51581 54.0826 6.62876L54.6585 11.0773C54.6743 11.1802 54.7263 11.2741 54.8052 11.3421C54.8841 11.4101 54.9847 11.4476 55.0888 11.448Z" fill="#222222"/>
<path d="M60.8084 11.309C60.8611 11.3301 60.9172 11.3413 60.9739 11.3421C61.0592 11.3398 61.1421 11.313 61.2125 11.2649C61.283 11.2168 61.338 11.1493 61.3711 11.0707C61.7985 9.96758 61.9441 8.77537 61.7948 7.60186C61.7799 7.48939 61.7218 7.38713 61.6329 7.31671C61.5439 7.24629 61.4311 7.21323 61.3182 7.22452C61.2618 7.23024 61.2071 7.24721 61.1574 7.27444C61.1077 7.30168 61.0639 7.33861 61.0287 7.38305C60.9935 7.4275 60.9676 7.47855 60.9525 7.53319C60.9374 7.58783 60.9335 7.64495 60.9408 7.70115C61.076 8.73068 60.9508 9.77766 60.5767 10.7463C60.5328 10.8516 60.5326 10.9701 60.5761 11.0756C60.6195 11.1811 60.7031 11.2651 60.8084 11.309Z" fill="#222222"/>
<path d="M69.5539 10.3292C69.4494 10.285 69.3316 10.2838 69.2262 10.3259C69.1208 10.3681 69.0364 10.4502 68.9912 10.5543C68.454 11.7585 67.7375 12.8745 66.8662 13.8642C66.8055 13.9404 66.7725 14.0349 66.7725 14.1323C66.7725 14.2297 66.8055 14.3243 66.8662 14.4004C66.9093 14.4604 66.9558 14.5178 67.0053 14.5726C67.035 14.5981 67.0616 14.627 67.0847 14.6586C67.1248 14.7121 67.1767 14.7554 67.2365 14.7853C67.2962 14.8152 67.3621 14.8307 67.4289 14.8307C67.521 14.8309 67.611 14.8032 67.6871 14.7513C67.7328 14.7179 67.7715 14.6758 67.8009 14.6274C67.8303 14.579 67.8499 14.5253 67.8585 14.4693C67.8671 14.4134 67.8646 14.3563 67.8511 14.3013C67.8376 14.2463 67.8133 14.1945 67.7798 14.1489C68.6048 13.1615 69.2867 12.0628 69.8055 10.8853C69.8444 10.7781 69.8399 10.66 69.7929 10.5561C69.7459 10.4522 69.6601 10.3708 69.5539 10.3292Z" fill="#222222"/>
<path d="M68.666 18.8423C68.6885 18.9374 68.7428 19.022 68.8198 19.0822C68.8968 19.1423 68.9919 19.1745 69.0896 19.1733H69.1823C70.1157 18.9549 70.9631 18.7497 71.87 18.4783C71.9797 18.4458 72.0721 18.371 72.1267 18.2705C72.1813 18.1699 72.1938 18.0518 72.1613 17.942C72.1288 17.8323 72.0541 17.74 71.9535 17.6854C71.8529 17.6307 71.7348 17.6183 71.6251 17.6508C70.738 17.9156 69.9105 18.1208 68.9771 18.3128C68.9216 18.3266 68.8695 18.3514 68.8237 18.3856C68.7779 18.4199 68.7394 18.4629 68.7104 18.5123C68.6814 18.5616 68.6626 18.6161 68.655 18.6728C68.6473 18.7295 68.6511 18.7871 68.666 18.8423Z" fill="#222222"/>
<path d="M72.2214 23.1983C72.2232 23.0835 72.1798 22.9727 72.1005 22.8897C72.0212 22.8067 71.9125 22.7582 71.7977 22.7547L70.209 22.6952C69.547 22.6621 68.8122 22.629 68.1105 22.6157C67.9963 22.6157 67.8869 22.661 67.8062 22.7417C67.7255 22.8224 67.6802 22.9319 67.6802 23.046C67.6802 23.1601 67.7255 23.2696 67.8062 23.3503C67.8869 23.431 67.9963 23.4763 68.1105 23.4763C68.7724 23.4763 69.5006 23.5227 70.1825 23.5558L71.7911 23.6153C71.903 23.6154 72.0105 23.5719 72.0908 23.494C72.1711 23.4162 72.218 23.3101 72.2214 23.1983Z" fill="#222222"/>
<path d="M66.2236 27.6667C66.1764 27.7703 66.1722 27.8884 66.2119 27.9951C66.2516 28.1018 66.332 28.1884 66.4354 28.236L68.8318 29.3084C69.6328 29.6592 70.4272 30.0101 71.2216 30.3742C71.2777 30.3999 71.3386 30.4135 71.4004 30.4139C71.4831 30.4155 71.5644 30.3924 71.6339 30.3476C71.7035 30.3028 71.7581 30.2383 71.7909 30.1624C71.8152 30.1112 71.829 30.0557 71.8314 29.9991C71.8339 29.9426 71.825 29.886 71.8052 29.833C71.7855 29.7799 71.7553 29.7313 71.7165 29.6901C71.6776 29.6489 71.6309 29.6159 71.5791 29.5931C70.7781 29.2224 69.9837 28.8715 69.1827 28.5207C68.3817 28.1698 67.5873 27.8189 66.7929 27.4548C66.7417 27.4306 66.6862 27.4168 66.6297 27.4143C66.5731 27.4119 66.5166 27.4208 66.4635 27.4405C66.4104 27.4603 66.3619 27.4905 66.3206 27.5293C66.2794 27.5682 66.2464 27.6149 66.2236 27.6667Z" fill="#222222"/>
<path d="M35.8259 40.86C35.9662 40.2016 36.2663 39.5877 36.6998 39.0726C36.761 38.995 36.8475 38.9413 36.9442 38.9207C37.0409 38.9002 37.1418 38.9141 37.2293 38.9601L37.3022 39.013C37.3308 38.9241 37.3288 38.8281 37.2963 38.7405C37.2639 38.6529 37.203 38.5787 37.1234 38.5298C37.0758 38.4997 37.0226 38.4793 36.967 38.47C36.9114 38.4607 36.8545 38.4626 36.7996 38.4755C36.7448 38.4884 36.693 38.5122 36.6474 38.5454C36.6019 38.5786 36.5634 38.6206 36.5343 38.6688C36.3688 38.9402 36.2033 39.2249 36.0378 39.5095C35.8723 39.7942 35.7266 40.0524 35.5677 40.3105C35.5092 40.4081 35.4917 40.5248 35.519 40.6352C35.5463 40.7456 35.6162 40.8407 35.7134 40.8997C35.7477 40.9137 35.7831 40.9248 35.8193 40.9328C35.8193 40.9328 35.8193 40.8865 35.8259 40.86Z" fill="#222222"/>
<path d="M36.6985 39.0727C36.265 39.5878 35.9649 40.2016 35.8246 40.8601C35.8246 40.8601 35.8246 40.9064 35.8246 40.9329C35.8217 41.0142 35.842 41.0947 35.883 41.165C35.924 41.2353 35.9841 41.2926 36.0563 41.3301C36.0281 41.2237 36.0399 41.1106 36.0894 41.0123C36.149 40.8932 36.1953 40.7806 36.2417 40.6615C36.288 40.5423 36.3542 40.3901 36.427 40.2444C36.4817 40.1446 36.5732 40.0701 36.682 40.0367C36.7908 40.0034 36.9083 40.0137 37.0096 40.0657C37.0617 40.0896 37.1072 40.126 37.142 40.1716C37.2764 39.9455 37.381 39.703 37.4531 39.45C37.4736 39.3709 37.4707 39.2876 37.4449 39.2101C37.419 39.1326 37.3713 39.0641 37.3075 39.0131L37.2347 38.9602C37.1464 38.9124 37.0441 38.8975 36.9459 38.9181C36.8477 38.9387 36.76 38.9935 36.6985 39.0727Z" fill="#222222"/>
<path d="M37.0165 40.0657C36.9152 40.0137 36.7977 40.0034 36.6889 40.0367C36.5801 40.0701 36.4886 40.1446 36.4339 40.2444C36.3611 40.3901 36.3081 40.5225 36.2485 40.6615C36.189 40.8005 36.1559 40.8932 36.0963 41.0123C36.0468 41.1106 36.035 41.2237 36.0632 41.3301C36.0795 41.3868 36.1073 41.4396 36.1449 41.4852C36.1824 41.5308 36.229 41.5681 36.2816 41.5949C36.3406 41.6265 36.4067 41.6425 36.4736 41.6412C36.5527 41.6416 36.6304 41.6202 36.6982 41.5793C36.7659 41.5385 36.8211 41.4797 36.8576 41.4095C36.9276 41.2743 36.9895 41.135 37.0429 40.9925C37.0959 40.8733 37.1422 40.7608 37.2018 40.6416C37.2399 40.5667 37.2551 40.4822 37.2457 40.3987C37.2363 40.3152 37.2026 40.2362 37.1488 40.1716C37.114 40.126 37.0686 40.0896 37.0165 40.0657Z" fill="#222222"/>
<path d="M39.8363 42.045C39.8026 42.0906 39.7787 42.1425 39.7658 42.1976C39.7528 42.2528 39.7513 42.3099 39.7612 42.3657C39.7711 42.4214 39.7923 42.4746 39.8234 42.5219C39.8545 42.5692 39.8949 42.6096 39.9422 42.6408C40.012 42.6952 40.0987 42.7233 40.1871 42.7202C40.2557 42.7211 40.3235 42.7053 40.3846 42.6741C40.4457 42.643 40.4983 42.5975 40.538 42.5415C40.5835 42.4778 40.6213 42.4089 40.6505 42.3363C40.648 42.3165 40.648 42.2965 40.6505 42.2767C40.682 42.232 40.7042 42.1814 40.7155 42.1279C40.7269 42.0745 40.7273 42.0192 40.7167 41.9656C40.7095 41.9088 40.6904 41.8541 40.6608 41.805C40.6311 41.756 40.5916 41.7137 40.5446 41.6809C40.5075 41.6578 40.4674 41.64 40.4254 41.628C40.3397 41.5982 40.2464 41.5982 40.1606 41.628C40.074 41.6552 39.9977 41.7083 39.9422 41.7802V41.8332L39.8628 41.9788L39.8363 42.045Z" fill="#222222"/>
<path d="M20.5464 40.026C20.6312 40.0251 20.7139 39.9996 20.7844 39.9526C20.8549 39.9056 20.9103 39.8391 20.9436 39.7612C21.8193 37.7305 23.1954 35.9549 24.9436 34.6004C26.6917 33.2459 28.7547 32.3567 30.9397 32.0159C31.0529 32.0001 31.1553 31.94 31.2242 31.8487C31.2931 31.7575 31.3229 31.6426 31.3071 31.5294C31.2913 31.4161 31.2312 31.3138 31.1399 31.2449C31.0487 31.176 30.9338 31.1462 30.8205 31.162C28.4876 31.5249 26.2849 32.4738 24.4185 33.9198C22.5522 35.3659 21.0833 37.2618 20.1493 39.4302C20.1266 39.4822 20.1146 39.5383 20.1141 39.595C20.1135 39.6518 20.1244 39.7081 20.146 39.7606C20.1676 39.8131 20.1995 39.8607 20.2399 39.9006C20.2802 39.9405 20.3282 39.9719 20.3809 39.9929C20.4336 40.0139 20.4897 40.0251 20.5464 40.026Z" fill="#222222"/>
<path d="M18.0844 44.6797C18.1429 44.7054 18.206 44.7189 18.2698 44.7194C18.3506 44.7197 18.4298 44.6975 18.4988 44.6555C18.5677 44.6134 18.6237 44.553 18.6604 44.4811C18.8722 44.031 19.0907 43.5742 19.3224 43.1108C19.5541 42.6474 19.7593 42.1708 19.9844 41.7206C20.0328 41.6177 20.0391 41.4999 20.002 41.3923C19.9649 41.2848 19.8873 41.1959 19.7858 41.1447C19.7349 41.1198 19.6797 41.1053 19.6232 41.1018C19.5667 41.0984 19.5101 41.1061 19.4566 41.1245C19.4031 41.143 19.3538 41.1718 19.3114 41.2093C19.2691 41.2469 19.2346 41.2924 19.2098 41.3433C18.9848 41.8001 18.7663 42.2767 18.5478 42.7467C18.3294 43.2167 18.1242 43.6602 17.8859 44.0707C17.8545 44.1227 17.8347 44.1809 17.8279 44.2413C17.821 44.3016 17.8272 44.3628 17.846 44.4206C17.8649 44.4783 17.8959 44.5314 17.937 44.5761C17.9782 44.6208 18.0284 44.6561 18.0844 44.6797Z" fill="#222222"/>
<path d="M11.669 67.6308C11.6708 67.5741 11.6612 67.5176 11.6407 67.4646C11.6202 67.4117 11.5893 67.3634 11.5497 67.3226C11.5102 67.2819 11.4629 67.2495 11.4106 67.2274C11.3583 67.2053 11.3021 67.1939 11.2454 67.1939C11.1329 67.1956 11.0254 67.2405 10.9452 67.3194C10.8651 67.3984 10.8185 67.5052 10.8151 67.6176C10.7399 70.315 9.70471 72.8971 7.89569 74.8994C7.42568 75.4092 6.79017 76.1042 7.02849 77.0376C7.14737 77.3435 7.35415 77.6073 7.62276 77.7958C7.89137 77.9843 8.20977 78.089 8.53782 78.0968C8.91176 78.1079 9.28503 78.0587 9.64335 77.9512C9.79561 77.9115 9.93463 77.8717 10.0935 77.8453C12.8672 77.2693 15.5814 78.6198 18.2095 79.9371C20.1955 80.8904 22.4065 81.8437 24.6043 81.8437C25.4227 81.8475 26.2348 81.7017 27.0007 81.4134C27.0584 81.3973 27.1121 81.3695 27.1583 81.3315C27.2046 81.2936 27.2425 81.2464 27.2695 81.193C27.2965 81.1396 27.312 81.0811 27.3152 81.0213C27.3183 80.9616 27.309 80.9018 27.2877 80.8459C27.2664 80.79 27.2337 80.7391 27.1917 80.6965C27.1496 80.6539 27.0992 80.6206 27.0435 80.5986C26.9878 80.5766 26.9282 80.5665 26.8684 80.5688C26.8086 80.5712 26.75 80.586 26.6962 80.6124C24.0483 81.6119 21.1289 80.3873 18.5868 79.1626C16.0448 77.9379 12.9864 76.3624 9.93462 77.0045C9.76712 77.0326 9.60135 77.0701 9.43813 77.1171C9.16782 77.1999 8.88675 77.2423 8.60403 77.2428C8.29951 77.2428 7.94203 77.0509 7.85598 76.8126C7.74344 76.3756 8.06781 75.9851 8.51797 75.4886C10.4731 73.3297 11.5908 70.5423 11.669 67.6308Z" fill="#222222"/>
<path d="M65.0316 81.6316C63.9309 81.7628 62.8176 81.745 61.7217 81.5787L61.2252 81.5257C59.9806 81.3999 58.4382 81.2477 57.1473 81.8633C56.7507 82.0696 56.3681 82.3018 56.0021 82.5584C55.3003 83.0351 54.6317 83.4918 53.9234 83.4124C53.3509 83.2882 52.8171 83.027 52.3677 82.6511C52.136 82.4856 51.8911 82.3201 51.6395 82.1679C50.795 81.7082 49.8399 81.4909 48.8796 81.54C47.9193 81.589 46.9913 81.9025 46.198 82.4459C46.152 82.4782 46.1128 82.5193 46.0829 82.5669C46.0529 82.6145 46.0328 82.6675 46.0235 82.723C46.0143 82.7784 46.0162 82.8352 46.0291 82.8899C46.042 82.9446 46.0656 82.9962 46.0987 83.0417C46.1299 83.0889 46.1703 83.1294 46.2176 83.1605C46.2649 83.1916 46.3181 83.2127 46.3738 83.2226C46.4296 83.2326 46.4867 83.231 46.5419 83.2181C46.597 83.2052 46.6489 83.1812 46.6945 83.1476C47.351 82.6959 48.1199 82.4352 48.9158 82.3943C49.7116 82.3534 50.5032 82.5339 51.2026 82.9159C51.4409 83.0549 51.6594 83.2072 51.8646 83.3594C52.4367 83.829 53.1211 84.1416 53.8506 84.2664H54.1088C54.9884 84.1789 55.8213 83.8282 56.4985 83.2601C56.8277 83.0135 57.1752 82.7922 57.5379 82.5981C58.6037 82.0884 59.9541 82.2274 61.1523 82.34L61.6488 82.3929C62.8197 82.566 64.0083 82.5838 65.1839 82.4459C65.9205 82.3369 66.6071 82.0081 67.154 81.5026C67.7008 80.9971 68.0824 80.3384 68.2489 79.6126C68.4541 78.1628 67.5869 76.9647 66.7925 75.9121L66.3755 75.3494C64.5086 72.8272 63.5818 69.5041 63.6216 65.466C63.6613 61.8979 64.4954 58.3628 65.2964 54.9404C65.3123 54.8338 65.2876 54.7252 65.2273 54.6359C65.1669 54.5467 65.0753 54.4833 64.9705 54.4584C64.8657 54.4334 64.7553 54.4487 64.6612 54.5012C64.5671 54.5536 64.4961 54.6395 64.4623 54.7418C63.6414 58.2106 62.8007 61.7919 62.761 65.4527C62.7146 69.6894 63.701 73.1847 65.6804 75.8525C65.8128 76.0445 65.9584 76.2365 66.0974 76.4284C66.8455 77.4347 67.5538 78.4144 67.4214 79.4868C67.286 80.0437 66.9853 80.5466 66.5587 80.9294C66.1322 81.3122 65.5999 81.557 65.0316 81.6316Z" fill="#222222"/>
<path d="M19.1964 0.13469C18.8166 -0.00432814 18.4059 -0.0364837 18.009 0.0417195C17.6121 0.119923 17.2443 0.305477 16.9456 0.578209C16.5786 0.947893 16.3122 1.4054 16.172 1.90715C16.0318 2.4089 16.0224 2.93819 16.1446 3.44462C16.2395 3.90382 16.458 4.3284 16.7765 4.67255C17.095 5.0167 17.5014 5.26734 17.9519 5.39746C18.2222 5.48029 18.5033 5.52268 18.786 5.52324C19.0771 5.5273 19.3661 5.47383 19.6365 5.36591C19.9068 5.25799 20.1532 5.09775 20.3615 4.89437C20.7153 4.53342 20.9695 4.08699 21.0994 3.59858C21.2294 3.11017 21.2306 2.59641 21.1029 2.10739C20.991 1.63796 20.7549 1.20724 20.4196 0.860211C20.0842 0.513188 19.6617 0.262623 19.1964 0.13469ZM19.7657 4.2721C19.5574 4.46216 19.3005 4.59064 19.0234 4.64323C18.7464 4.69583 18.4603 4.67047 18.1968 4.56998C17.8926 4.48207 17.6186 4.31197 17.4049 4.07838C17.1911 3.84479 17.046 3.55677 16.9854 3.24601C16.8969 2.88794 16.9003 2.51333 16.9952 2.15691C17.0901 1.80049 17.2734 1.47381 17.5282 1.2071C17.717 1.0366 17.95 0.92261 18.2004 0.878131C18.4509 0.833652 18.7089 0.860473 18.9448 0.955546C19.2648 1.03562 19.5569 1.20109 19.7901 1.43428C20.0233 1.66746 20.1888 1.95961 20.2688 2.27952C20.3648 2.62677 20.3689 2.99302 20.2807 3.34233C20.1925 3.69165 20.0151 4.01205 19.7657 4.2721Z" fill="#222222"/>
<path d="M1.88494 39.225C2.06147 39.225 2.24022 39.225 2.42116 39.225C4.96012 39.0854 7.39628 38.1756 9.40515 36.6167C10.3121 35.8753 10.7291 35.167 10.7291 34.4653C10.7197 34.1524 10.6376 33.846 10.4894 33.5703C10.3412 33.2945 10.1309 33.057 9.87517 32.8765C9.39602 32.5075 8.80498 32.3136 8.20034 32.3271C7.96176 32.3347 7.7245 32.3657 7.492 32.4198C7.51837 32.2309 7.51837 32.0393 7.492 31.8505C7.41695 31.2716 7.16076 30.7313 6.76006 30.3068C6.35937 29.8823 5.83469 29.5954 5.2611 29.4872C4.71744 29.3825 4.15688 29.4057 3.62376 29.5551C3.09064 29.7045 2.59959 29.9758 2.18946 30.3477C1.40365 31.0443 0.830071 31.9483 0.534487 32.956C0.216731 33.8563 -0.458497 36.769 0.47491 38.2982C0.61984 38.5532 0.823226 38.7702 1.06835 38.9313C1.31348 39.0924 1.59334 39.1931 1.88494 39.225ZM1.38845 33.2671C1.63834 32.4084 2.12193 31.6361 2.78525 31.0362C3.30042 30.5866 3.95539 30.3293 4.63882 30.308C4.7967 30.3067 4.95427 30.3222 5.10884 30.3544C5.50039 30.4318 5.85951 30.6255 6.13937 30.9101C6.41924 31.1947 6.60685 31.557 6.67776 31.9498C6.69697 32.2528 6.62553 32.5547 6.47254 32.817C6.04703 33.0308 5.63574 33.2718 5.24124 33.5385C5.16128 33.5873 5.09972 33.6611 5.06618 33.7485C5.03265 33.836 5.02903 33.9321 5.05588 34.0218C5.08547 34.1099 5.14125 34.1869 5.21577 34.2425C5.2903 34.2981 5.38002 34.3297 5.47294 34.3329C5.75168 34.3323 6.02718 34.2731 6.28152 34.159C6.53586 34.045 6.76335 33.8787 6.94917 33.6709C6.98889 33.6246 7.02861 33.5849 7.06171 33.5385C7.43458 33.3679 7.83699 33.2712 8.24667 33.2539C8.65531 33.2573 9.05293 33.3868 9.38529 33.6246C9.52963 33.7294 9.64858 33.8653 9.73337 34.0223C9.81816 34.1793 9.86662 34.3533 9.87517 34.5315C9.87517 34.9618 9.57065 35.4384 8.8888 35.9945C7.21397 37.3184 4.34094 38.5961 1.99749 38.4107C1.84654 38.3908 1.70224 38.3362 1.57591 38.2512C1.44957 38.1663 1.34463 38.0532 1.2693 37.9209C0.607306 36.7955 1.01112 34.3395 1.38845 33.2605V33.2671Z" fill="#222222"/>
</svg>
