<svg width="135" height="40" viewBox="0 0 135 40" fill="none" xmlns="http://www.w3.org/2000/svg">
<g clip-path="url(#clip0_94_12352)">
<path d="M130 0H5C2.23858 0 0 2.23858 0 5V35C0 37.7614 2.23858 40 5 40H130C132.761 40 135 37.7614 135 35V5C135 2.23858 132.761 0 130 0Z" fill="black"/>
<path d="M130 0.800122C131.113 0.801393 132.181 1.2443 132.968 2.03168C133.756 2.81905 134.199 3.8866 134.2 5.00012V35.0001C134.199 36.1136 133.756 37.1812 132.968 37.9686C132.181 38.7559 131.113 39.1989 130 39.2001H4.99989C3.88637 39.1989 2.81883 38.7559 2.03145 37.9686C1.24407 37.1812 0.801164 36.1136 0.799893 35.0001V5.00012C0.801164 3.8866 1.24407 2.81905 2.03145 2.03168C2.81883 1.2443 3.88637 0.801393 4.99989 0.800122H130ZM130 0.00012207H4.99989C3.675 0.00400017 2.40549 0.53203 1.46864 1.46887C0.531801 2.40571 0.00377129 3.67523 -0.000106812 5.00012V35.0001C0.00377129 36.325 0.531801 37.5945 1.46864 38.5314C2.40549 39.4682 3.675 39.9962 4.99989 40.0001H130C131.325 39.9962 132.594 39.4682 133.531 38.5314C134.468 37.5945 134.996 36.325 135 35.0001V5.00012C134.996 3.67523 134.468 2.40571 133.531 1.46887C132.594 0.53203 131.325 0.00400017 130 0.00012207Z" fill="#A6A6A6"/>
<path d="M45.9771 12.7491C45.4204 12.949 44.8341 13.0538 44.2427 13.0591C43.857 13.0964 43.4679 13.0488 43.1027 12.9195C42.7374 12.7902 42.405 12.5825 42.1287 12.3109C41.8524 12.0393 41.6389 11.7105 41.5034 11.3475C41.3679 10.9845 41.3136 10.5963 41.3443 10.2101C41.3311 9.81141 41.4024 9.41448 41.5533 9.04527C41.7043 8.67606 41.9315 8.34291 42.2202 8.06765C42.5089 7.79239 42.8525 7.58123 43.2284 7.448C43.6044 7.31478 44.0043 7.26249 44.4019 7.29457C44.8839 7.28318 45.363 7.3717 45.8091 7.55457L45.6333 8.14927C45.24 7.97805 44.814 7.8952 44.3853 7.90657C44.0811 7.88271 43.7753 7.92506 43.4891 8.03069C43.2028 8.13633 42.9428 8.30274 42.727 8.51848C42.5113 8.73421 42.3448 8.99415 42.2391 9.28039C42.1334 9.56663 42.091 9.87237 42.1148 10.1766C42.084 10.4747 42.1184 10.776 42.2156 11.0596C42.3127 11.3431 42.4702 11.6022 42.6773 11.8189C42.8844 12.0356 43.1361 12.2047 43.415 12.3146C43.6938 12.4245 43.9932 12.4725 44.2925 12.4554C44.6234 12.4736 44.9544 12.4222 45.2642 12.3045V10.6212H44.1167V10.0343H45.9767L45.9771 12.7491Z" fill="white" stroke="white" stroke-width="0.2" stroke-miterlimit="10"/>
<path d="M50.1816 10.3526H47.9863V12.3888H50.4326V13.0001H47.2578V7.35364H50.3066V7.96544H47.9866V9.75014H50.1819L50.1816 10.3526Z" fill="white" stroke="white" stroke-width="0.2" stroke-miterlimit="10"/>
<path d="M52.7568 7.9737H51.0391V7.3537H55.2197V7.9737H53.4942V13.0001H52.7568V7.9737Z" fill="white" stroke="white" stroke-width="0.2" stroke-miterlimit="10"/>
<path d="M58.6899 7.35364V13.0001H57.9609V7.35364H58.6899Z" fill="white" stroke="white" stroke-width="0.2" stroke-miterlimit="10"/>
<path d="M61.2021 7.9737H59.4844V7.3537H63.665V7.9737H61.9395V13.0001H61.2022L61.2021 7.9737Z" fill="white" stroke="white" stroke-width="0.2" stroke-miterlimit="10"/>
<path d="M71.2294 10.1183C71.2294 12.0616 70.0478 13.0919 68.6074 13.0919C68.2472 13.0871 67.892 13.007 67.5645 12.857C67.237 12.7069 66.9445 12.4902 66.7056 12.2205C66.4668 11.9509 66.2868 11.6344 66.1773 11.2912C66.0678 10.948 66.0312 10.5858 66.0698 10.2276C66.0303 9.85738 66.0684 9.48297 66.1816 9.12824C66.2948 8.77351 66.4807 8.44624 66.7273 8.16726C66.9739 7.88827 67.2759 7.66369 67.614 7.50781C67.9522 7.35193 68.3191 7.26816 68.6914 7.26184C69.0516 7.2642 69.4074 7.34227 69.7356 7.49098C70.0638 7.63969 70.357 7.85572 70.5963 8.12506C70.8356 8.39439 71.0156 8.71103 71.1247 9.05441C71.2337 9.3978 71.2694 9.76028 71.2294 10.1183ZM66.8494 10.2105C66.8494 11.4171 67.5027 12.4972 68.6494 12.4972C69.8056 12.4972 70.4594 11.4337 70.4594 10.152C70.4594 9.02944 69.8725 7.85654 68.6577 7.85654C67.4516 7.85654 66.8491 8.97084 66.8491 10.2101L66.8494 10.2105Z" fill="white" stroke="white" stroke-width="0.2" stroke-miterlimit="10"/>
<path d="M72.3476 13.0001V7.35358H73.1435L74.9535 10.2105C75.3311 10.7992 75.6697 11.412 75.9672 12.045L75.9838 12.0367C75.9164 11.2828 75.8998 10.5958 75.8998 9.71668V7.35358H76.5863V13.0001H75.8499L74.0569 10.1349C73.6674 9.52837 73.3148 8.89897 73.0009 8.25008L72.9755 8.25888C73.0175 8.97078 73.0341 9.64948 73.0341 10.5875V13.0001H72.3476Z" fill="white" stroke="white" stroke-width="0.2" stroke-miterlimit="10"/>
<path d="M68.1373 21.7515C67.2968 21.7546 66.4761 22.0068 65.7788 22.4761C65.0815 22.9454 64.5388 23.6107 64.2194 24.3882C63.8999 25.1656 63.818 26.0203 63.9839 26.8443C64.1499 27.6683 64.5562 28.4246 65.1517 29.0178C65.7472 29.611 66.505 30.0145 67.3296 30.1773C68.1542 30.3401 69.0086 30.2549 69.7848 29.9325C70.5611 29.6101 71.2244 29.0649 71.691 28.3659C72.1576 27.6668 72.4066 26.8451 72.4066 26.0046C72.4149 25.4424 72.31 24.8843 72.0982 24.3635C71.8863 23.8427 71.5719 23.3698 71.1736 22.973C70.7753 22.5762 70.3012 22.2635 69.7796 22.0537C69.258 21.8438 68.6995 21.7411 68.1373 21.7515ZM68.1373 28.5823C67.6197 28.6192 67.1029 28.4995 66.6543 28.2387C66.2056 27.9779 65.8459 27.588 65.622 27.1198C65.398 26.6517 65.3202 26.127 65.3986 25.614C65.4771 25.101 65.7082 24.6235 66.0618 24.2437C66.4154 23.8639 66.8752 23.5993 67.3813 23.4845C67.8874 23.3697 68.4164 23.4099 68.8993 23.5999C69.3822 23.7899 69.7967 24.1209 70.0889 24.5498C70.3811 24.9787 70.5373 25.4856 70.5373 26.0046C70.553 26.3324 70.503 26.66 70.3902 26.9682C70.2774 27.2764 70.1041 27.5589 69.8804 27.7991C69.6568 28.0393 69.3874 28.2323 69.088 28.3668C68.7887 28.5013 68.4654 28.5746 68.1373 28.5823ZM58.8239 21.7515C57.9834 21.7546 57.1627 22.0068 56.4653 22.476C55.768 22.9453 55.2254 23.6107 54.9059 24.3881C54.5864 25.1656 54.5045 26.0202 54.6704 26.8442C54.8363 27.6682 55.2427 28.4246 55.8382 29.0178C56.4336 29.611 57.1915 30.0145 58.0161 30.1773C58.8407 30.3401 59.6951 30.2549 60.4713 29.9325C61.2475 29.6101 61.9109 29.065 62.3775 28.3659C62.8441 27.6668 63.0931 26.8451 63.0931 26.0046C63.1014 25.4424 62.9965 24.8843 62.7847 24.3635C62.5728 23.8427 62.2584 23.3698 61.8601 22.973C61.4618 22.5762 60.9877 22.2636 60.4661 22.0537C59.9445 21.8439 59.3861 21.7411 58.8239 21.7515ZM58.8239 28.5823C58.3063 28.6192 57.7895 28.4995 57.3409 28.2387C56.8922 27.9779 56.5325 27.588 56.3086 27.1198C56.0846 26.6517 56.0068 26.127 56.0852 25.614C56.1637 25.101 56.3948 24.6235 56.7484 24.2437C57.102 23.8639 57.5618 23.5993 58.0679 23.4845C58.574 23.3697 59.103 23.4099 59.5859 23.5999C60.0688 23.7899 60.4833 24.1209 60.7755 24.5498C61.0677 24.9787 61.2239 25.4856 61.2239 26.0046C61.2397 26.3324 61.1896 26.66 61.0768 26.9682C60.964 27.2764 60.7907 27.5589 60.5671 27.7991C60.3434 28.0393 60.074 28.2323 59.7746 28.3668C59.4753 28.5013 59.152 28.5746 58.8239 28.5823ZM47.7451 23.0565V24.8608H52.0628C52.0005 25.7071 51.6542 26.5075 51.08 27.1324C50.6474 27.5734 50.127 27.9188 49.5526 28.1464C48.9782 28.3739 48.3625 28.4785 47.7451 28.4534C46.4826 28.4371 45.2773 27.9241 44.3902 27.0255C43.5032 26.1269 43.0058 24.9151 43.0058 23.6525C43.0058 22.3898 43.5032 21.178 44.3902 20.2794C45.2773 19.3808 46.4826 18.8679 47.7451 18.8516C48.9573 18.8357 50.1268 19.2989 50.9995 20.1404L52.2722 18.8677C51.6768 18.2783 50.9696 17.8137 50.1922 17.5012C49.4148 17.1886 48.5829 17.0345 47.7451 17.0477C46.8696 17.0349 46.0003 17.1963 45.1877 17.5226C44.3752 17.8488 43.6356 18.3333 43.0119 18.9479C42.3883 19.5626 41.8931 20.295 41.5551 21.1028C41.217 21.9105 41.043 22.7774 41.043 23.653C41.043 24.5286 41.217 25.3954 41.5551 26.2032C41.8931 27.0109 42.3883 27.7434 43.0119 28.358C43.6356 28.9726 44.3752 29.4571 45.1877 29.7833C46.0003 30.1096 46.8696 30.271 47.7451 30.2583C48.6006 30.2937 49.4538 30.1469 50.2482 29.8275C51.0426 29.5081 51.76 29.0234 52.3527 28.4056C53.4051 27.2568 53.9661 25.7418 53.9155 24.1847C53.9197 23.8065 53.8872 23.4289 53.8187 23.057L47.7451 23.0565ZM93.0534 24.458C92.7978 23.6876 92.3113 23.0146 91.6599 22.5304C91.0085 22.0461 90.2238 21.7742 89.4124 21.7515C88.866 21.7549 88.326 21.8691 87.8249 22.0872C87.3239 22.3052 86.8722 22.6226 86.4973 23.0202C86.1224 23.4177 85.832 23.8871 85.6436 24.4001C85.4553 24.913 85.3729 25.4589 85.4014 26.0046C85.3891 26.5637 85.4896 27.1197 85.697 27.6391C85.9043 28.1586 86.2143 28.6309 86.6083 29.0279C87.0022 29.4249 87.4722 29.7384 87.9901 29.9497C88.5079 30.1611 89.0631 30.2658 89.6223 30.2578C90.323 30.2616 91.0136 30.0914 91.6322 29.7624C92.2508 29.4334 92.7781 28.956 93.1665 28.3729L91.7165 27.4063C91.4993 27.767 91.1921 28.0651 90.8249 28.2712C90.4577 28.4774 90.0433 28.5846 89.6222 28.5823C89.1889 28.5988 88.7606 28.4848 88.3929 28.255C88.0252 28.0252 87.735 27.6902 87.56 27.2935L93.2471 24.9414L93.0534 24.458ZM87.2534 25.8758C87.2334 25.5662 87.2753 25.2558 87.3767 24.9626C87.4781 24.6694 87.637 24.3994 87.844 24.1684C88.051 23.9374 88.302 23.75 88.5823 23.6171C88.8626 23.4843 89.1666 23.4087 89.4765 23.3948C89.7992 23.3735 90.121 23.4478 90.4018 23.6082C90.6826 23.7686 90.9099 24.0082 91.0554 24.297L87.2534 25.8758ZM82.6299 29.9999H84.4987V17.4984H82.6299V29.9999ZM79.5689 22.7019H79.5045C79.2204 22.3932 78.8737 22.1487 78.4875 21.9848C78.1013 21.8209 77.6846 21.7413 77.2651 21.7514C76.1684 21.798 75.1322 22.2665 74.3727 23.059C73.6132 23.8516 73.1891 24.9068 73.1891 26.0045C73.1891 27.1022 73.6132 28.1575 74.3727 28.95C75.1322 29.7425 76.1684 30.211 77.2651 30.2577C77.6862 30.2688 78.1047 30.1882 78.4914 30.0212C78.8781 29.8543 79.2239 29.6051 79.5045 29.2911H79.5689V29.9033C79.5689 31.5305 78.6989 32.4004 77.2973 32.4004C76.8302 32.3892 76.377 32.2392 75.9954 31.9695C75.6138 31.6998 75.3212 31.3226 75.1547 30.886L73.5275 31.5627C73.8342 32.3094 74.3569 32.9475 75.0286 33.3952C75.7002 33.843 76.4903 34.08 77.2975 34.0759C79.4886 34.0759 81.3413 32.7871 81.3413 29.6459V22.0092H79.5689V22.7019ZM77.4263 28.5819C76.7804 28.5271 76.1786 28.2318 75.74 27.7544C75.3014 27.2771 75.058 26.6525 75.058 26.0042C75.058 25.356 75.3014 24.7313 75.74 24.254C76.1786 23.7766 76.7804 23.4813 77.4263 23.4266C77.7477 23.4422 78.0626 23.5225 78.3523 23.6625C78.642 23.8025 78.9005 23.9993 79.1125 24.2414C79.3245 24.4834 79.4855 24.7657 79.5861 25.0713C79.6867 25.3769 79.7247 25.6996 79.6978 26.0203C79.723 26.3389 79.6837 26.6594 79.5821 26.9625C79.4806 27.2656 79.3189 27.5451 79.1069 27.7843C78.8948 28.0235 78.6367 28.2174 78.3479 28.3545C78.0592 28.4916 77.7457 28.5691 77.4263 28.5823V28.5819ZM101.807 17.4982H97.3361V29.9999H99.2014V25.2636H101.807C102.335 25.2924 102.863 25.2134 103.359 25.0313C103.855 24.8492 104.309 24.5679 104.693 24.2046C105.076 23.8412 105.382 23.4034 105.591 22.918C105.8 22.4325 105.908 21.9096 105.908 21.3811C105.908 20.8526 105.8 20.3296 105.591 19.8442C105.382 19.3587 105.076 18.9209 104.693 18.5576C104.309 18.1942 103.855 17.9129 103.359 17.7308C102.863 17.5487 102.335 17.4697 101.807 17.4986L101.807 17.4982ZM101.856 23.5234H99.2014V19.2385H101.855C102.14 19.2326 102.424 19.2837 102.689 19.3888C102.954 19.4938 103.195 19.6507 103.399 19.8503C103.603 20.0498 103.764 20.288 103.875 20.5508C103.985 20.8137 104.042 21.096 104.042 21.3811C104.042 21.6662 103.985 21.9485 103.875 22.2114C103.764 22.4742 103.603 22.7124 103.399 22.912C103.195 23.1115 102.954 23.2684 102.689 23.3734C102.424 23.4785 102.14 23.5296 101.855 23.5238L101.856 23.5234ZM113.387 21.7281C112.706 21.6883 112.028 21.8482 111.437 22.1882C110.846 22.5282 110.366 23.0334 110.058 23.642L111.715 24.3336C111.879 24.0315 112.128 23.7839 112.43 23.6211C112.733 23.4583 113.077 23.3873 113.419 23.4168C113.893 23.3706 114.365 23.5139 114.733 23.8154C115.101 24.1169 115.334 24.5519 115.382 25.0251V25.1538C114.782 24.8354 114.114 24.6697 113.435 24.6713C111.65 24.6713 109.833 25.6524 109.833 27.4859C109.85 27.8722 109.945 28.2512 110.112 28.6003C110.278 28.9493 110.513 29.2613 110.803 29.5178C111.092 29.7743 111.43 29.97 111.797 30.0934C112.164 30.2167 112.551 30.2652 112.937 30.2359C113.407 30.2634 113.875 30.1646 114.294 29.9496C114.712 29.7347 115.066 29.4114 115.317 29.0136H115.381V29.9786H117.182V25.1864C117.183 22.9669 115.526 21.7285 113.387 21.7285V21.7281ZM113.162 28.5795C112.551 28.5795 111.698 28.274 111.698 27.518C111.698 26.5531 112.76 26.1831 113.677 26.1831C114.272 26.1672 114.861 26.3116 115.382 26.6013C115.313 27.1436 115.051 27.6428 114.643 28.0065C114.235 28.3702 113.709 28.5739 113.162 28.5799V28.5795ZM123.745 22.0015L121.606 27.4215H121.541L119.322 22.0015H117.312L120.641 29.5767L118.743 33.7905H120.689L125.82 22.0015H123.745ZM106.938 29.9999H108.803V17.4986H106.938V29.9999Z" fill="white"/>
<path d="M20.7168 19.4242L10.0703 30.7242L10.072 30.7311C10.1871 31.1588 10.3994 31.5543 10.6923 31.8866C10.9852 32.2189 11.3509 32.4791 11.7608 32.6469C12.1707 32.8147 12.6139 32.8857 13.0557 32.8542C13.4976 32.8228 13.9262 32.6897 14.3082 32.4655L14.3421 32.4455L26.326 25.5309L20.7168 19.4242Z" fill="#EA4335"/>
<path d="M31.489 17.4999L31.479 17.4932L26.3054 14.4932L20.4766 19.6804L26.3259 25.5286L31.4721 22.5599C31.9286 22.3145 32.3103 21.9503 32.577 21.5058C32.8437 21.0614 32.9854 20.5532 32.9871 20.0349C32.9888 19.5166 32.8506 19.0074 32.5869 18.5612C32.3232 18.115 31.9438 17.7483 31.489 17.4999Z" fill="#FBBC04"/>
<path d="M10.0702 9.27722C10.0052 9.51851 9.97237 9.76733 9.97267 10.0172V29.9848C9.972 30.2346 10.005 30.4832 10.0709 30.7241L21.0837 19.7135L10.0702 9.27722Z" fill="#4285F4"/>
<path d="M20.7958 20.0011L26.3058 14.492L14.3358 7.55198C13.9535 7.3223 13.5232 7.18453 13.0786 7.14952C12.6341 7.1145 12.1874 7.18321 11.7739 7.35021C11.3604 7.51722 10.9914 7.77796 10.6958 8.11191C10.4003 8.44585 10.1863 8.84386 10.0708 9.27458L10.0701 9.27748L20.7958 20.0011Z" fill="#34A853"/>
</g>
<defs>
<clipPath id="clip0_94_12352">
<rect width="135" height="40.0001" fill="white"/>
</clipPath>
</defs>
</svg>
