<svg width="186" height="235" viewBox="0 0 186 235" fill="none" xmlns="http://www.w3.org/2000/svg">
<path d="M170.81 85.9466L118.94 75.2751C115.27 74.5406 111.457 75.2907 108.341 77.3605C105.225 79.4303 103.061 82.6502 102.324 86.3121L77.3061 207.358C76.5308 211.012 77.242 214.824 79.2831 217.954C81.3242 221.085 84.5282 223.279 88.1904 224.053L140.06 234.725C143.73 235.459 147.543 234.709 150.659 232.639C153.775 230.57 155.939 227.35 156.676 223.688L181.694 102.642C182.469 98.9881 181.758 95.1765 179.717 92.0456C177.676 88.9146 174.472 86.7208 170.81 85.9466Z" fill="#4978CF"/>
<path d="M168.044 87.5757L118.122 77.2267C116.672 76.9305 115.178 76.9245 113.726 77.2089C112.274 77.4933 110.892 78.0625 109.659 78.8841C108.425 79.7056 107.365 80.7634 106.539 81.997C105.712 83.2306 105.136 84.6158 104.842 86.0736L80.2394 206.017C79.6268 208.957 80.2009 212.021 81.8355 214.536C83.4701 217.05 86.0313 218.809 88.9556 219.425L138.878 229.774C141.806 230.371 144.85 229.774 147.341 228.115C149.831 226.456 151.564 223.871 152.158 220.927L176.76 100.983C177.064 99.5276 177.079 98.026 176.805 96.5643C176.532 95.1026 175.974 93.7095 175.165 92.4644C174.355 91.2194 173.31 90.1468 172.088 89.308C170.866 88.4692 169.492 87.8805 168.044 87.5757Z" fill="#EBF2FB"/>
<path d="M150.175 88.9035L136.663 86.1856C135.869 86.026 135.097 86.5397 134.938 87.3328L134.938 87.333C134.778 88.1261 135.292 88.8983 136.085 89.0578L149.597 91.7758C150.39 91.9353 151.162 91.4217 151.322 90.6286L151.322 90.6284C151.481 89.8353 150.968 89.0631 150.175 88.9035Z" fill="#4978CF"/>
<path d="M128.824 161.999C128.678 162 128.534 161.972 128.398 161.919C124.675 160.473 121.094 158.684 117.7 156.577C117.435 156.412 117.247 156.148 117.176 155.844C117.105 155.54 117.158 155.22 117.323 154.955C117.487 154.69 117.751 154.501 118.054 154.43C118.358 154.359 118.678 154.412 118.943 154.577C122.212 156.608 125.663 158.332 129.25 159.726C129.506 159.826 129.719 160.012 129.852 160.251C129.985 160.491 130.03 160.77 129.98 161.04C129.929 161.31 129.786 161.554 129.575 161.729C129.364 161.904 129.098 162 128.824 162V161.999ZM108.946 149.675C108.657 149.675 108.378 149.569 108.162 149.376C105.21 146.715 102.438 143.86 99.8639 140.831C99.7635 140.714 99.6871 140.578 99.6392 140.431C99.5912 140.284 99.5727 140.129 99.5845 139.975C99.5963 139.821 99.6383 139.671 99.7081 139.533C99.7779 139.395 99.8742 139.273 99.9913 139.172C100.108 139.072 100.244 138.995 100.391 138.947C100.538 138.899 100.692 138.881 100.846 138.893C101 138.904 101.15 138.946 101.288 139.016C101.425 139.086 101.548 139.183 101.648 139.3C104.155 142.25 106.855 145.029 109.731 147.62C109.908 147.779 110.033 147.988 110.089 148.22C110.145 148.451 110.129 148.695 110.044 148.917C109.959 149.14 109.809 149.331 109.613 149.467C109.417 149.602 109.184 149.675 108.946 149.675ZM93.5429 131.955C93.3553 131.955 93.1704 131.91 93.0037 131.824C92.8369 131.738 92.6931 131.614 92.5842 131.461C90.5334 128.582 88.4403 125.46 85.9968 121.64C85.9136 121.509 85.8568 121.364 85.8297 121.212C85.8026 121.059 85.8057 120.903 85.8389 120.752C85.872 120.601 85.9346 120.458 86.023 120.331C86.1113 120.205 86.2238 120.096 86.3539 120.013C86.4841 119.93 86.6293 119.873 86.7814 119.846C86.9335 119.819 87.0894 119.822 87.2403 119.855C87.3911 119.888 87.534 119.951 87.6607 120.039C87.7874 120.128 87.8955 120.24 87.9787 120.371C90.3991 124.159 92.4704 127.249 94.4995 130.095C94.6249 130.271 94.6995 130.478 94.715 130.693C94.7306 130.909 94.6866 131.125 94.5877 131.317C94.4889 131.509 94.3391 131.67 94.1548 131.783C93.9705 131.895 93.7588 131.955 93.5429 131.955ZM80.7552 112.193C80.5546 112.194 80.3572 112.142 80.1819 112.045C80.0066 111.947 79.8593 111.806 79.754 111.635C77.7975 108.467 75.7089 105.09 73.5283 101.66C73.4444 101.529 73.3871 101.383 73.3596 101.231C73.3322 101.078 73.3351 100.922 73.3683 100.77C73.4015 100.618 73.4643 100.475 73.5531 100.348C73.6418 100.221 73.7548 100.112 73.8855 100.029C74.0163 99.9457 74.1622 99.8891 74.3148 99.8624C74.4675 99.8357 74.6239 99.8395 74.7751 99.8736C74.9262 99.9076 75.0692 99.9712 75.1958 100.061C75.3223 100.15 75.4299 100.264 75.5125 100.395C77.6974 103.834 79.7931 107.221 81.7542 110.398C81.8645 110.576 81.9252 110.78 81.93 110.99C81.9349 111.199 81.8838 111.406 81.7819 111.59C81.68 111.773 81.5312 111.925 81.3507 112.031C81.1702 112.137 80.9646 112.193 80.7552 112.193ZM68.049 92.372C67.858 92.3722 67.6699 92.3258 67.5009 92.2368C67.3318 92.1479 67.1869 92.0191 67.0787 91.8615C64.617 88.2753 62.3631 85.1832 60.1852 82.4153C59.9984 82.1695 59.9154 81.86 59.9544 81.5535C59.9933 81.247 60.151 80.9681 60.3934 80.777C60.6358 80.5858 60.9435 80.4976 61.2503 80.5314C61.557 80.5652 61.8382 80.7184 62.0332 80.9578C64.2412 83.7693 66.525 86.8982 69.0156 90.5283C69.1368 90.705 69.2076 90.9114 69.2202 91.1254C69.2329 91.3394 69.1869 91.5528 69.0873 91.7425C68.9876 91.9323 68.8382 92.0912 68.6549 92.2021C68.4717 92.3131 68.2617 92.3718 68.0476 92.372H68.049ZM53.3185 74.0496C53.0134 74.0501 52.7201 73.9312 52.5011 73.7184C52.1784 73.4058 51.8573 73.1016 51.5377 72.8057C48.979 70.7051 46.006 69.1689 42.8134 68.2976C42.5177 68.2016 42.2719 67.9923 42.1299 67.7154C41.9879 67.4385 41.9611 67.1166 42.0555 66.82C42.1499 66.5234 42.3578 66.2763 42.6337 66.1328C42.9096 65.9892 43.231 65.9608 43.5277 66.0538C47.0486 67.0252 50.3222 68.7369 53.1302 71.0747C53.4644 71.3827 53.7996 71.7 54.136 72.0265C54.3043 72.1895 54.4202 72.3991 54.4687 72.6285C54.5173 72.8578 54.4963 73.0965 54.4085 73.3138C54.3206 73.5312 54.17 73.7173 53.9758 73.8484C53.7816 73.9795 53.5527 74.0495 53.3185 74.0496Z" fill="#E5A6D7"/>
<path d="M71.6184 76.385C72.8066 62.2692 57.1604 54.5192 45.1794 58.7123C51.0137 30.2005 8.13393 28.3943 9.1766 57.7114C9.30679 65.6126 11.1925 77.7263 18.1292 89.3481C37.8975 95.8392 65.9985 96.9527 71.6184 76.385Z" fill="#F16861"/>
<path d="M178.16 26.4245C178.135 23.7274 177.454 21.0775 176.175 18.7065C174.896 16.3355 173.059 14.3156 170.825 12.8236C168.584 11.3259 166.014 10.3988 163.338 10.1223C160.661 9.8458 157.958 10.2282 155.461 11.2366C153.64 7.50605 150.712 4.4353 147.082 2.44743C143.453 0.459553 139.299 -0.347603 135.194 0.13717C131.089 0.621943 127.234 2.37479 124.161 5.15419C121.088 7.93359 118.948 11.6028 118.036 15.6562C113.597 15.9331 109.441 17.9385 106.448 21.2465C103.456 24.5545 101.864 28.9048 102.009 33.374C102.155 37.8432 104.027 42.0795 107.228 45.1836C110.429 48.2878 114.707 50.0154 119.154 49.9999H173.823C176.665 50.0049 179.419 49.0094 181.606 47.1862C183.794 45.363 185.278 42.8272 185.801 40.0188C186.313 37.2118 185.829 34.3129 184.433 31.8283C183.036 29.3436 180.816 27.4311 178.16 26.4245Z" fill="#E9EEFF"/>
</svg>
