<svg width="248" height="165" viewBox="0 0 248 165" fill="none" xmlns="http://www.w3.org/2000/svg">
<path d="M62.2756 0.230155L11.1585 9.71582C7.54887 10.4049 4.37381 12.4346 2.33172 15.3584C0.289634 18.2823 -0.45223 21.8608 0.269325 25.3068L23.5106 139.453C24.1941 142.906 26.2862 145.958 29.3268 147.939C32.3674 149.919 36.1075 150.665 39.7244 150.013L90.8416 140.527C92.6288 140.186 94.3282 139.512 95.8427 138.544C97.3572 137.576 98.6571 136.333 99.6682 134.885C100.679 133.438 101.382 131.814 101.736 130.108C102.09 128.401 102.088 126.644 101.731 124.938L78.4895 10.7911C77.8063 7.3381 75.7142 4.28555 72.6736 2.305C69.6329 0.324446 65.8927 -0.421893 62.2756 0.230155Z" fill="#A84E9B"/>
<path d="M63.0344 3.05997L13.9135 12.2518C11.0363 12.7996 8.50302 14.4251 6.87082 16.771C5.23861 19.1168 4.64121 21.9907 5.21002 24.7606L28.0277 137.767C28.5782 140.541 30.2506 142.99 32.6769 144.576C35.1032 146.163 38.0847 146.756 40.9656 146.227L90.0865 137.035C91.5111 136.764 92.8663 136.225 94.0747 135.45C95.2832 134.674 96.3211 133.677 97.1293 132.516C97.9375 131.354 98.5001 130.051 98.7851 128.68C99.07 127.309 99.0716 125.898 98.7899 124.526L75.9721 11.5196C75.4217 8.74614 73.7495 6.2968 71.3232 4.71032C68.8969 3.12385 65.9153 2.53019 63.0344 3.05997Z" fill="#FCEDF6"/>
<path d="M61.127 81.342C61.0339 81.3421 60.9411 81.3306 60.851 81.3079C60.7077 81.2731 60.5728 81.2113 60.4542 81.126C60.3355 81.0407 60.2354 80.9336 60.1595 80.8108C60.0837 80.688 60.0335 80.5519 60.012 80.4103C59.9905 80.2687 59.998 80.1244 60.0341 79.9857C60.874 76.7506 61.9962 73.5904 63.3886 70.5392C63.5546 70.1771 63.7228 69.8152 63.8966 69.4553C63.9592 69.3256 64.0477 69.2091 64.1569 69.1124C64.266 69.0158 64.3938 68.9409 64.5328 68.8921C64.6719 68.8433 64.8195 68.8214 64.9672 68.8278C65.115 68.8342 65.26 68.8688 65.394 68.9295C65.528 68.9901 65.6483 69.0758 65.7481 69.1815C65.8479 69.2872 65.9252 69.4109 65.9757 69.5455C66.0261 69.6802 66.0487 69.8231 66.042 69.9662C66.0354 70.1093 65.9998 70.2497 65.9371 70.3794C65.7701 70.726 65.6062 71.0716 65.4468 71.4206C64.1069 74.359 63.0266 77.4021 62.2175 80.5172C62.1564 80.7526 62.0159 80.9614 61.8184 81.1108C61.6209 81.2602 61.3776 81.3415 61.127 81.342ZM127.601 77.0152C125.98 77.0124 124.37 76.7609 122.83 76.2699C122.549 76.1775 122.317 75.9815 122.184 75.7244C122.051 75.4674 122.029 75.17 122.121 74.8969C122.214 74.6239 122.413 74.3971 122.678 74.2659C122.942 74.1346 123.248 74.1096 123.531 74.1961C125.159 74.7212 126.878 74.926 128.588 74.7987C130.358 74.6598 132.08 74.1729 133.649 73.3676C133.78 73.3012 133.923 73.2604 134.07 73.2477C134.218 73.2349 134.366 73.2503 134.508 73.2931C134.649 73.336 134.78 73.4053 134.893 73.4972C135.007 73.589 135.101 73.7017 135.169 73.8286C135.238 73.9556 135.28 74.0944 135.293 74.2371C135.306 74.3798 135.29 74.5236 135.246 74.6604C135.202 74.7971 135.13 74.9241 135.035 75.034C134.941 75.144 134.824 75.2347 134.693 75.3011C132.854 76.2422 130.837 76.8102 128.764 76.9705C128.377 77.0002 127.989 77.0151 127.601 77.0152ZM114.33 69.7541C114.151 69.7544 113.974 69.7134 113.815 69.6345C113.656 69.5557 113.518 69.4413 113.414 69.3007C111.08 66.1546 109.636 62.4729 109.224 58.62C109.195 58.3323 109.286 58.0454 109.475 57.8224C109.665 57.5993 109.939 57.4585 110.236 57.4308C110.533 57.4031 110.83 57.4909 111.06 57.6748C111.29 57.8587 111.436 58.1236 111.464 58.4113C111.837 61.8808 113.14 65.1956 115.243 68.0274C115.364 68.1903 115.437 68.3823 115.452 68.5825C115.468 68.7826 115.426 68.983 115.331 69.1616C115.237 69.3402 115.093 69.49 114.916 69.5946C114.739 69.6991 114.536 69.7543 114.329 69.7541H114.33ZM141.834 67.5744C141.643 67.5742 141.455 67.5271 141.288 67.4373C141.121 67.3474 140.981 67.218 140.879 67.061C140.778 66.9041 140.72 66.7248 140.711 66.5401C140.701 66.3553 140.74 66.1712 140.824 66.0051C141.995 63.7119 142.614 61.1915 142.635 58.6333C142.635 58.1292 142.609 57.6253 142.557 57.1237C142.517 56.7425 142.463 56.3613 142.398 55.9846C142.348 55.6994 142.417 55.4068 142.591 55.1712C142.764 54.9356 143.027 54.7762 143.321 54.7282C143.616 54.6803 143.918 54.7475 144.161 54.9152C144.404 55.083 144.569 55.3374 144.619 55.6226C144.692 56.0462 144.751 56.4743 144.798 56.9044C144.857 57.482 144.886 58.0583 144.887 58.6333C144.866 61.5236 144.169 64.3717 142.847 66.9633C142.754 67.1466 142.61 67.301 142.431 67.409C142.252 67.517 142.045 67.5743 141.834 67.5744ZM70.6593 61.5585C70.4231 61.5591 70.1928 61.4868 70.002 61.352C69.882 61.2682 69.7802 61.1624 69.7025 61.0405C69.6248 60.9186 69.5726 60.7831 69.549 60.6417C69.5254 60.5003 69.5309 60.3558 69.565 60.2164C69.5991 60.0771 69.6613 59.9456 69.7479 59.8295C72.0032 56.8066 74.5369 53.9879 77.3178 51.4081C77.5336 51.2082 77.8225 51.0994 78.1211 51.1058C78.4197 51.1122 78.7034 51.2332 78.9098 51.4421C79.1162 51.6511 79.2285 51.9309 79.2219 52.22C79.2153 52.5091 79.0904 52.7838 78.8746 52.9837C76.1918 55.4718 73.7479 58.1908 71.5731 61.1071C71.4685 61.247 71.3312 61.3609 71.1723 61.4393C71.0135 61.5178 70.8376 61.5587 70.6593 61.5585ZM212.873 59.0203C212.653 59.0202 212.438 58.9577 212.254 58.8404C212.071 58.7231 211.926 58.5562 211.84 58.3603C210.372 55.0566 208.592 51.8916 206.521 48.906C206.436 48.7873 206.375 48.6532 206.344 48.5116C206.312 48.37 206.31 48.2238 206.338 48.0814C206.365 47.9391 206.422 47.8035 206.504 47.6825C206.587 47.5616 206.693 47.4578 206.817 47.3772C206.942 47.2965 207.081 47.2407 207.228 47.2129C207.375 47.1852 207.526 47.186 207.672 47.2154C207.819 47.2448 207.958 47.3022 208.081 47.3843C208.204 47.4663 208.309 47.5713 208.39 47.6931C210.539 50.79 212.386 54.0733 213.908 57.5007C213.967 57.6322 213.998 57.7735 214 57.9167C214.002 58.0598 213.975 58.2019 213.92 58.3348C213.865 58.4678 213.784 58.5889 213.68 58.6913C213.577 58.7937 213.454 58.8754 213.318 58.9317C213.178 58.9908 213.026 59.021 212.873 59.0203ZM112.276 48.8975C112.09 48.8977 111.906 48.8531 111.742 48.7677C111.578 48.6824 111.439 48.5589 111.336 48.4084C111.233 48.258 111.171 48.0852 111.154 47.9056C111.137 47.726 111.167 47.5451 111.24 47.3793C112.815 43.903 115.001 40.7176 117.701 37.9648C117.904 37.7531 118.186 37.6283 118.485 37.6179C118.783 37.6076 119.074 37.7125 119.293 37.9096C119.511 38.1067 119.64 38.3798 119.651 38.6689C119.662 38.958 119.553 39.2394 119.35 39.4511C116.828 42.0188 114.785 44.9907 113.312 48.2347C113.225 48.4311 113.08 48.5986 112.896 48.7164C112.712 48.8343 112.496 48.8972 112.276 48.8975ZM138.754 47.0622C138.587 47.0625 138.422 47.027 138.271 46.9581C138.12 46.8892 137.987 46.7887 137.881 46.6639C135.563 43.9521 132.682 41.743 129.424 40.1802C129.292 40.1165 129.174 40.0281 129.077 39.9202C128.98 39.8123 128.906 39.687 128.859 39.5513C128.812 39.4157 128.793 39.2724 128.803 39.1297C128.814 38.987 128.853 38.8476 128.919 38.7195C128.984 38.5915 129.076 38.4772 129.187 38.3833C129.299 38.2894 129.428 38.2176 129.568 38.1721C129.708 38.1266 129.856 38.1083 130.003 38.1182C130.151 38.1281 130.295 38.166 130.427 38.2298C133.97 39.9285 137.103 42.3306 139.623 45.2798C139.758 45.4395 139.844 45.633 139.87 45.8379C139.896 46.0428 139.862 46.2507 139.771 46.4374C139.679 46.624 139.536 46.7818 139.355 46.8924C139.175 47.003 138.967 47.0619 138.754 47.0622ZM86.9426 46.4382C86.7006 46.4383 86.465 46.3628 86.2708 46.223C86.0766 46.0833 85.934 45.8866 85.8643 45.6622C85.7946 45.4378 85.8015 45.1976 85.8838 44.9772C85.9661 44.7569 86.1196 44.5681 86.3215 44.4389C89.5355 42.3806 92.9406 40.6169 96.4928 39.1708C96.7681 39.059 97.0779 39.0576 97.3543 39.1671C97.6306 39.2765 97.8507 39.4877 97.9662 39.7543C98.0816 40.0208 98.083 40.3209 97.97 40.5884C97.857 40.856 97.6389 41.0691 97.3636 41.181C93.9408 42.5749 90.6593 44.2744 87.5617 46.2573C87.3786 46.3759 87.163 46.4389 86.9426 46.4382ZM200.298 40.8914C200.148 40.8916 200 40.8628 199.862 40.8069C199.725 40.7509 199.6 40.6689 199.495 40.5657C196.893 38.0042 194.043 35.6898 190.986 33.654C190.861 33.5743 190.754 33.4713 190.671 33.3511C190.587 33.2309 190.53 33.0958 190.501 32.9538C190.472 32.8118 190.473 32.6656 190.503 32.5239C190.534 32.3822 190.593 32.2477 190.677 32.1283C190.762 32.009 190.87 31.9071 190.996 31.8287C191.121 31.7502 191.262 31.6968 191.409 31.6716C191.556 31.6463 191.707 31.6496 191.853 31.6815C191.998 31.7133 192.136 31.7729 192.258 31.8568C195.436 33.971 198.397 36.3758 201.1 39.038C201.256 39.191 201.361 39.3853 201.403 39.5964C201.446 39.8075 201.422 40.0259 201.336 40.2242C201.251 40.4224 201.106 40.5917 200.921 40.7106C200.736 40.8296 200.519 40.8929 200.297 40.8926L200.298 40.8914ZM107.754 38.0613C107.474 38.0604 107.204 37.9586 106.998 37.7757C106.791 37.5929 106.662 37.342 106.636 37.0722C106.61 36.8023 106.689 36.5328 106.857 36.3161C107.025 36.0994 107.271 35.9512 107.546 35.9002C110.254 35.3934 113.005 35.1332 115.763 35.123H115.795C116.914 35.123 118.03 35.1705 119.143 35.2656C119.29 35.2784 119.433 35.319 119.565 35.3854C119.696 35.4517 119.812 35.5424 119.907 35.6522C120.002 35.7621 120.073 35.8889 120.117 36.0255C120.162 36.1622 120.178 36.3059 120.164 36.4485C120.151 36.5911 120.109 36.7299 120.041 36.8567C119.972 36.9836 119.879 37.0962 119.765 37.1881C119.652 37.2799 119.521 37.3493 119.38 37.3921C119.239 37.4349 119.09 37.4504 118.943 37.4377C117.897 37.3461 116.846 37.3029 115.794 37.3029H115.763C113.146 37.3132 110.535 37.5606 107.966 38.0419C107.896 38.0547 107.825 38.0613 107.754 38.0615V38.0613ZM127.254 32.8275C127.01 32.8278 126.773 32.7517 126.578 32.6104C126.383 32.4692 126.241 32.2706 126.172 32.0443C126.104 31.818 126.113 31.5763 126.198 31.3554C126.284 31.1346 126.441 30.9465 126.646 30.8195C127.091 30.5426 127.54 30.2758 127.991 30.019C130.859 28.3735 133.869 26.9715 136.988 25.8285C137.126 25.7777 137.273 25.7539 137.421 25.7582C137.569 25.7626 137.715 25.7952 137.85 25.854C137.985 25.9129 138.106 25.9969 138.208 26.1013C138.309 26.2057 138.388 26.3284 138.44 26.4624C138.493 26.5964 138.518 26.739 138.513 26.8823C138.508 27.0255 138.475 27.1664 138.414 27.2971C138.353 27.4277 138.267 27.5455 138.159 27.6437C138.051 27.7418 137.924 27.8185 137.786 27.8692C134.789 28.9681 131.895 30.3153 129.137 31.8959C128.706 32.1427 128.28 32.3961 127.86 32.656C127.679 32.7685 127.469 32.8281 127.254 32.8277V32.8275ZM181.683 28.592C181.533 28.5919 181.385 28.5629 181.246 28.5067C177.825 27.1201 174.271 26.0617 170.636 25.3468C170.35 25.282 170.102 25.112 169.944 24.8728C169.786 24.6337 169.73 24.3443 169.789 24.0661C169.848 23.7879 170.016 23.5428 170.259 23.3829C170.501 23.223 170.798 23.1609 171.087 23.2097C174.866 23.9543 178.561 25.0555 182.119 26.4975C182.359 26.5951 182.556 26.77 182.677 26.9924C182.799 27.2149 182.837 27.4713 182.786 27.718C182.735 27.9648 182.597 28.1867 182.396 28.3461C182.194 28.5056 181.942 28.5927 181.682 28.5927L181.683 28.592ZM148.311 25.0572C148.029 25.0568 147.758 24.9541 147.551 24.7694C147.343 24.5846 147.215 24.3313 147.191 24.0594C147.167 23.7875 147.249 23.5168 147.421 23.3006C147.593 23.0844 147.842 22.9385 148.12 22.8917C151.63 22.3052 155.186 22.0103 158.749 22.0101L159.62 22.0165C159.768 22.0187 159.914 22.049 160.05 22.1059C160.186 22.1627 160.309 22.2449 160.412 22.3478C160.514 22.4506 160.595 22.5721 160.65 22.7053C160.704 22.8384 160.731 22.9807 160.729 23.1239C160.734 23.2692 160.708 23.4141 160.652 23.549C160.597 23.684 160.512 23.8061 160.404 23.9073C160.296 24.0085 160.168 24.0866 160.026 24.1365C159.885 24.1865 159.735 24.2071 159.585 24.197L158.749 24.1907C155.315 24.1904 151.888 24.4753 148.505 25.0424C148.441 25.0527 148.376 25.0579 148.311 25.0578V25.0572Z" fill="#92BBE0"/>
<path d="M224.701 24.0481C211.374 19.4536 199.838 31.9967 200.787 44.11C174.757 31.6552 161.914 70.8441 190.502 77.1416C198.168 78.9782 210.357 80.2355 223.378 76.702C234.765 60.0367 243.113 34.3372 224.701 24.0481Z" fill="#F16861"/>
<path d="M180.027 147.452C180.008 145.49 179.489 143.563 178.514 141.838C177.54 140.114 176.14 138.645 174.438 137.56C172.731 136.471 170.773 135.796 168.734 135.595C166.694 135.394 164.635 135.672 162.732 136.406C161.344 133.692 159.114 131.459 156.349 130.013C153.583 128.568 150.418 127.981 147.291 128.333C144.163 128.686 141.226 129.961 138.885 131.982C136.544 134.003 134.913 136.672 134.218 139.62C130.836 139.821 127.669 141.28 125.389 143.686C123.109 146.092 121.896 149.256 122.007 152.506C122.118 155.756 123.544 158.837 125.983 161.095C128.422 163.353 131.682 164.609 135.07 164.598H176.723C178.888 164.602 180.986 163.878 182.653 162.552C184.319 161.226 185.45 159.381 185.848 157.339C186.239 155.297 185.87 153.189 184.806 151.382C183.742 149.575 182.05 148.184 180.027 147.452Z" fill="#E9EEFF"/>
<path d="M44.9852 11.1621L32.0822 13.7467C31.3249 13.8984 30.8394 14.6089 30.998 15.3337L30.998 15.3339C31.1565 16.0586 31.899 16.5232 32.6563 16.3715L45.5593 13.7868C46.3167 13.6351 46.8021 12.9246 46.6436 12.1999L46.6436 12.1997C46.485 11.475 45.7426 11.0104 44.9852 11.1621Z" fill="#A84E9B"/>
</svg>
