<svg width="420" height="312" viewBox="0 0 420 312" fill="none" xmlns="http://www.w3.org/2000/svg">
<path d="M17.4897 212.645C6.26888 205.517 -3.40842 196.257 2.22407 191.947C7.86173 187.632 24.2893 203.946 31.6039 221.86L35.2315 227.288C29.7227 214.336 28.5048 196.357 33.6611 193.526C38.7847 190.713 38.7263 202.716 37.2036 213.573C36.0446 221.837 36.8211 227.678 37.4489 230.605L54.5822 256.24C45.9041 235.703 44.0054 207.322 52.164 202.844C60.2942 198.38 60.2013 217.426 57.7852 234.652C55.9593 247.67 57.1606 256.904 58.1527 261.582L61.569 266.694C60.981 267.526 60.389 268.353 59.793 269.175L39.4089 238.677C35.8516 237.224 32.1618 236.467 28.4755 236.436C19.5485 236.214 9.9875 234 13.2008 228.328C15.9893 223.407 26.8388 226.371 35.7083 233.141L28.6588 222.593C26.0504 219.766 22.3324 215.721 17.4897 212.645Z" fill="#989DCF"/>
<path d="M348.757 0.241821H69.7003C55.1418 0.241821 43.3398 14.2671 43.3398 31.568V242.129C43.3398 259.43 55.1418 273.454 69.7003 273.454H348.756C363.314 273.454 375.117 259.43 375.117 242.129V31.568C375.117 14.2671 363.315 0.241821 348.757 0.241821Z" fill="#E9EEFF"/>
<path d="M223.082 39.5573C223.082 39.5573 210.183 55.051 210.53 59.2173C210.877 63.3835 212.951 69.5537 214.131 74.0672C215.31 78.5808 217.159 79.0933 222.759 82.8432C228.359 86.5932 233.56 84.5517 226.76 76.7756C219.959 68.9995 226.343 45.8078 226.343 45.8078L223.082 39.5573Z" fill="#D29880"/>
<path d="M215.174 234.029C268.77 234.029 312.218 190.55 312.218 136.917C312.218 83.2842 268.77 39.8059 215.174 39.8059C161.577 39.8059 118.129 83.2842 118.129 136.917C118.129 190.55 161.577 234.029 215.174 234.029Z" fill="#FDFEFF"/>
<path d="M227.938 51.891C227.938 51.891 240.73 46.1123 248.173 50.5163C252.232 52.9179 263.134 43.0891 263.134 43.0891L225.766 48.1314L227.938 51.891Z" fill="#D29880"/>
<path d="M154.754 174.363L159.097 167.492L176.366 184.612C176.395 184.671 171.171 189.786 171.126 189.833C172.936 190.868 177.429 194.464 177.429 194.464C180.29 196.881 186.278 186.259 186.278 186.259C186.278 186.259 202.29 172.291 208.039 176.072C213.788 179.852 198.598 191.085 194.382 197.293C190.166 203.501 180.42 209.942 173.85 216.595C164.138 226.432 162.081 245.797 159.707 246.202L138.852 233.422L154.754 174.363Z" fill="#E69874"/>
<path d="M225.436 51.5865C225.436 51.5865 223.02 63.4153 224.092 67.3992C225.164 71.3831 229.289 77.3497 230.106 82.0797C230.822 86.2159 230.719 89.7407 228.422 89.7407C226.125 89.7407 218.361 79.8882 216.938 77.0983C213.086 69.5522 213.646 56.7948 213.646 56.7948L225.436 51.5865Z" fill="#DFA48B"/>
<path d="M224.133 174.941L195.167 168.154C188.042 166.475 181.873 162.037 178.014 155.813C174.155 149.588 172.92 142.087 174.58 134.953L184.7 91.7102C186.377 84.58 190.811 78.4067 197.031 74.5444C203.251 70.6822 210.747 69.4464 217.876 71.1081L246.842 77.8953C253.968 79.5739 260.137 84.0119 263.996 90.236C267.856 96.46 269.091 103.962 267.43 111.096L257.311 154.339C255.633 161.469 251.198 167.642 244.979 171.504C238.759 175.366 231.263 176.602 224.134 174.941H224.133ZM215.635 80.6866C211.044 79.6166 206.217 80.4125 202.211 82.8995C198.206 85.3866 195.35 89.3618 194.27 93.9531L184.151 137.196C183.082 141.79 183.878 146.621 186.363 150.628C188.848 154.636 192.82 157.494 197.408 158.575L226.374 165.363C230.965 166.433 235.793 165.637 239.798 163.15C243.803 160.663 246.659 156.688 247.738 152.096L257.856 108.853C258.926 104.259 258.131 99.4281 255.646 95.42C253.16 91.412 249.187 88.5543 244.599 87.4739L215.635 80.6866Z" fill="#6C0F25"/>
<path d="M243.239 66.1864C239.793 69.5144 235.647 72.4696 232.998 78.2354C231.899 80.6272 229.299 86.6772 230.844 88.9047C235.449 95.5442 248.869 78.7294 256.009 72.0303C263.149 65.3312 272.138 59.7165 275.623 57.3059C278.965 54.9937 284.075 48.1321 284.075 48.1321L304.75 54.9937L310.999 26.6336C310.999 26.6336 298.938 24.7184 287.765 24.4354C286.001 24.3907 284.249 24.5952 282.492 24.7513C268.911 25.9577 237.217 21.5129 230.283 24.8473C222.852 28.4203 212.142 51.1456 211.695 57.089C211.348 61.3196 212.37 65.5498 214.611 69.1542C216.173 72.2805 221.545 49.2906 238.524 47.2185C245.506 46.3665 250.439 50.8564 249.502 55.657C248.426 61.1706 247.206 62.3549 243.239 66.1864Z" fill="#DFA48B"/>
<path d="M282.221 146.43C281.997 143.757 281.364 141.135 280.345 138.654C278.413 134.025 275.567 129.833 271.976 126.332C268.415 122.862 264.178 120.163 259.529 118.402C258.486 118.022 257.424 117.698 256.346 117.433C255.949 117.334 255.545 117.244 255.142 117.158L254.871 117.107C254.695 117.069 254.513 117.037 254.337 117.004C254.129 116.966 253.92 116.93 253.706 116.896C253.129 116.801 252.551 116.728 251.97 116.666C251.798 116.648 251.629 116.63 251.451 116.614C251.248 116.594 251.039 116.577 250.833 116.565C250.416 116.534 249.999 116.508 249.584 116.498C249.167 116.483 248.746 116.475 248.328 116.475C248.157 116.475 247.986 116.479 247.817 116.479C246.463 116.5 245.11 116.598 243.766 116.771C243.389 116.819 243.015 116.873 242.64 116.934C242.429 116.965 242.221 117.001 242.007 117.041C241.854 117.067 241.702 117.093 241.551 117.123C241.428 117.146 241.303 117.168 241.177 117.196C240.958 117.24 240.738 117.281 240.523 117.332C240.384 117.361 240.242 117.387 240.106 117.423C239.894 117.472 239.685 117.524 239.473 117.573C239.047 117.678 238.628 117.787 238.204 117.906C237.996 117.961 237.786 118.026 237.575 118.086C236.449 118.42 235.328 118.805 234.213 119.241C233.94 119.347 233.667 119.455 233.397 119.574C233.326 119.597 233.257 119.625 233.19 119.659C233.012 119.731 232.836 119.806 232.66 119.887C232.423 119.986 232.186 120.093 231.947 120.199C231.596 120.36 231.241 120.53 230.888 120.702C230.48 120.897 230.074 121.103 229.67 121.32C229.348 121.488 229.025 121.661 228.705 121.841C228.36 122.03 228.018 122.228 227.68 122.427C226.183 123.31 224.733 124.272 223.337 125.308C223.024 125.532 222.72 125.766 222.415 126.005C222.379 126.031 222.35 126.058 222.314 126.084C221.996 126.33 221.68 126.582 221.371 126.839C221.029 127.115 220.702 127.393 220.368 127.681C220.039 127.963 219.71 128.253 219.381 128.551C219.058 128.846 218.731 129.146 218.409 129.45C218.087 129.753 217.769 130.066 217.453 130.383C213.623 115.327 203.279 103.925 190.563 100.774L190.539 100.768C189.982 100.63 189.411 100.507 188.843 100.401C172.061 97.2744 155.932 109.006 150.763 120.188C140.054 143.347 154.636 179.336 192.554 211.622C193.47 212.398 194.555 212.947 195.722 213.226C196.006 213.296 196.295 213.354 196.588 213.397C198.039 213.588 199.511 213.549 200.95 213.28C254.892 204.189 284.133 172.229 282.221 146.43Z" fill="#F36861"/>
<path d="M212.688 157.448C214.314 157.542 215.917 157.028 217.186 156.004C218.454 154.981 219.296 153.522 219.549 151.912C219.802 150.301 219.448 148.654 218.554 147.291C217.661 145.928 216.293 144.946 214.716 144.536C213.139 144.126 211.466 144.318 210.023 145.074C208.58 145.83 207.469 147.096 206.907 148.626C206.345 150.157 206.372 151.841 206.982 153.353C207.592 154.864 208.743 156.094 210.21 156.804C210.985 157.18 211.827 157.398 212.688 157.448Z" fill="#6C0F25"/>
<path d="M211.378 170.368L203.645 168.017C203.404 167.943 203.181 167.817 202.994 167.648C202.807 167.479 202.659 167.271 202.561 167.038C202.463 166.805 202.417 166.554 202.427 166.301C202.437 166.049 202.503 165.802 202.62 165.578L209.972 151.42C210.157 151.064 210.461 150.784 210.83 150.628C211.2 150.473 211.612 150.451 211.996 150.568L214.138 151.219C214.522 151.336 214.853 151.583 215.074 151.918C215.295 152.253 215.391 152.655 215.347 153.054L213.584 168.912C213.557 169.163 213.474 169.404 213.342 169.62C213.211 169.835 213.033 170.019 212.823 170.158C212.612 170.297 212.373 170.387 212.124 170.423C211.874 170.46 211.619 170.44 211.378 170.367V170.368Z" fill="#6C0F25"/>
<path d="M165.241 235.827C165.241 235.827 162.159 231.437 154.072 227.735C145.985 224.032 139.59 224.032 139.59 224.032L87.8385 308.867C87.1356 310.019 87.965 311.496 89.3147 311.496H141.412C142.177 311.496 142.851 310.994 143.069 310.261L165.241 235.827Z" fill="#4978CD"/>
<path d="M173.086 194.437C173.96 195.143 174.983 195.641 176.079 195.894C177.174 196.146 178.312 196.145 179.406 195.892C179.406 195.892 197.327 178.717 203.078 182.497C208.829 186.278 198.916 190.538 194.7 196.746C188.678 204.074 181.472 210.341 173.382 215.289L173.086 194.437Z" fill="#E69874"/>
<path d="M394.152 173.586C390.138 164.527 377.943 165.033 372.007 171.632C366.006 152.18 339.114 165.486 349.601 183.12C354.052 190.113 359.733 196.24 366.368 201.206C380.668 198.543 397.616 188.093 394.152 173.586Z" fill="#F16861"/>
<path d="M104.157 48.8702C103.06 48.3907 101.877 48.1394 100.68 48.1316C99.4936 48.1245 98.3184 48.3633 97.2285 48.833C96.9863 48.9409 96.7501 49.0619 96.521 49.1954C96.4362 49.2446 96.3521 49.2962 96.2694 49.3482L96.2141 49.3842C96.1781 49.4068 96.1409 49.4317 96.1062 49.4552C96.0638 49.4835 96.0221 49.512 95.9804 49.5417C95.8658 49.6212 95.7542 49.7048 95.6438 49.7912C95.6113 49.8165 95.5791 49.8417 95.5462 49.8685C95.508 49.8987 95.4691 49.9302 95.4318 49.9631C95.3547 50.0271 95.2788 50.0922 95.2059 50.1596C95.1329 50.2271 95.058 50.295 94.9861 50.3648L94.8987 50.4508C94.6692 50.6802 94.4528 50.9223 94.2505 51.1761C94.1937 51.248 94.1382 51.3189 94.0837 51.3919C94.0526 51.4322 94.0228 51.4733 93.9925 51.516C93.9707 51.5458 93.9484 51.576 93.9276 51.6059L93.8753 51.6807C93.8449 51.7249 93.814 51.7686 93.7854 51.8132C93.7662 51.8416 93.7463 51.8697 93.7288 51.8986L93.6445 52.0301C93.5886 52.1191 93.5347 52.2078 93.4813 52.2999C93.4546 52.3441 93.429 52.3898 93.403 52.4356C93.2644 52.6814 93.1353 52.9349 93.0157 53.196C92.9861 53.2596 92.9569 53.3239 92.9302 53.3897C92.9217 53.4054 92.9147 53.4217 92.909 53.4386C92.891 53.4812 92.873 53.5233 92.855 53.5666C92.8306 53.6231 92.8076 53.681 92.7832 53.7393C92.7492 53.8258 92.7163 53.9144 92.6843 54.0025C92.6462 54.1043 92.6103 54.2077 92.5765 54.3126C92.5488 54.3955 92.5226 54.4789 92.4967 54.5644C92.4685 54.6543 92.4428 54.7458 92.4174 54.8364C92.3057 55.239 92.2152 55.6472 92.1464 56.0593C92.1297 56.1492 92.1161 56.2413 92.103 56.3334L92.0988 56.364C92.085 56.4593 92.0722 56.556 92.0613 56.6517C92.0483 56.7562 92.0379 56.8587 92.028 56.9644C92.0181 57.0702 92.01 57.1731 92.0023 57.2793C91.9946 57.3856 91.989 57.4908 91.9843 57.5971C91.9797 57.7034 91.9761 57.8106 91.9739 57.9181C90.5932 56.9604 88.9791 56.3947 87.303 56.2811C85.6269 56.1675 83.9513 56.5103 82.4542 57.273L82.4493 57.2757C82.3307 57.3448 82.2121 57.4196 82.0969 57.495C80.6157 58.5911 79.5068 60.1163 78.9205 61.864C78.3342 63.6117 78.2987 65.4974 78.8188 67.266C80.8055 73.0599 89.2631 76.8604 101.121 76.1319C101.407 76.1135 101.685 76.0278 101.931 75.8818C101.992 75.8465 102.051 75.8082 102.109 75.7668C102.39 75.5579 102.637 75.3059 102.84 75.02C110.614 64.4582 110.36 54.0524 105.766 49.9048C105.286 49.4795 104.743 49.1305 104.157 48.8702ZM100.711 75.9763C101.156 76.0596 101.616 75.9998 102.025 75.8055C101.619 76.0099 101.156 76.0702 100.711 75.9763Z" fill="#F16861"/>
<path d="M305.074 23.2375C305.074 23.2375 299.643 29.9147 298.479 38.9065C297.314 47.8983 298.479 55.7986 298.479 55.7986L417.03 78.3517C418.096 78.5544 419.082 77.7375 419.082 76.653V35.2782C419.082 34.3844 418.401 33.6379 417.511 33.5562L305.074 23.2375Z" fill="#BD209A"/>
</svg>
