<svg width="16" height="16" viewBox="0 0 16 16" fill="none" xmlns="http://www.w3.org/2000/svg">
<g clip-path="url(#clip0_94_12335)">
<path d="M3.00469 0.724902C2.49844 0.921777 2.07031 1.18428 1.64219 1.6124C1.21406 2.0374 0.951563 2.46865 0.754688 2.97178C0.564063 3.45928 0.435938 4.01865 0.398438 4.8374C0.360937 5.65615 0.351562 5.91865 0.351562 8.00615C0.351562 10.0937 0.360937 10.3562 0.398438 11.1749C0.435938 11.9937 0.567188 12.553 0.754688 13.0405C0.951563 13.5468 1.21406 13.9749 1.64219 14.403C2.07031 14.8312 2.49844 15.0937 3.00469 15.2905C3.49219 15.4812 4.05156 15.6093 4.87031 15.6468C5.68906 15.6843 5.95156 15.6937 8.03906 15.6937C10.1266 15.6937 10.3891 15.6843 11.2078 15.6468C12.0266 15.6093 12.5859 15.478 13.0734 15.2905C13.5797 15.0937 14.0078 14.8312 14.4359 14.403C14.8641 13.9749 15.1266 13.5468 15.3234 13.0405C15.5141 12.553 15.6422 11.9937 15.6797 11.1749C15.7172 10.3562 15.7266 10.0937 15.7266 8.00615C15.7266 5.91865 15.7172 5.65615 15.6797 4.8374C15.6422 4.01865 15.5109 3.45928 15.3234 2.97178C15.1266 2.46865 14.8641 2.0374 14.4391 1.6124C14.0109 1.18428 13.5828 0.921777 13.0766 0.724902C12.5891 0.534277 12.0297 0.406152 11.2109 0.368652C10.3922 0.331152 10.1297 0.321777 8.04219 0.321777C5.95469 0.321777 5.69219 0.331152 4.87344 0.368652C4.05156 0.403027 3.49219 0.534277 3.00469 0.724902ZM11.1453 1.7499C11.8953 1.78428 12.3016 1.90928 12.5734 2.01553C12.9328 2.15615 13.1891 2.32178 13.4578 2.59053C13.7266 2.85928 13.8922 3.11553 14.0328 3.4749C14.1391 3.74678 14.2641 4.15303 14.2984 4.90303C14.3359 5.7124 14.3422 5.95615 14.3422 8.00928C14.3422 10.0624 14.3328 10.3062 14.2984 11.1155C14.2641 11.8655 14.1391 12.2718 14.0328 12.5437C13.8922 12.903 13.7266 13.1593 13.4578 13.428C13.1891 13.6968 12.9328 13.8624 12.5734 14.003C12.3016 14.1093 11.8953 14.2343 11.1453 14.2687C10.3359 14.3062 10.0922 14.3124 8.03906 14.3124C5.98594 14.3124 5.74219 14.303 4.93281 14.2687C4.18281 14.2343 3.77656 14.1093 3.50469 14.003C3.14531 13.8624 2.88906 13.6968 2.62031 13.428C2.35156 13.1593 2.18594 12.903 2.04531 12.5437C1.93906 12.2718 1.81406 11.8655 1.77969 11.1155C1.74219 10.3062 1.73594 10.0624 1.73594 8.00928C1.73594 5.95615 1.74531 5.7124 1.77969 4.90303C1.81406 4.15303 1.93906 3.74678 2.04531 3.4749C2.18594 3.11553 2.35156 2.85928 2.62031 2.59053C2.88906 2.32178 3.14531 2.15615 3.50469 2.01553C3.77656 1.90928 4.18281 1.78428 4.93281 1.7499C5.74219 1.7124 5.98594 1.70615 8.03906 1.70615C10.0922 1.70615 10.3359 1.7124 11.1453 1.7499Z" fill="url(#paint0_radial_94_12335)"/>
<path d="M4.09375 8.00937C4.09375 10.1906 5.8625 11.9563 8.04063 11.9563C10.2188 11.9563 11.9875 10.1875 11.9875 8.00937C11.9875 5.83125 10.2219 4.0625 8.04063 4.0625C5.85938 4.0625 4.09375 5.82812 4.09375 8.00937ZM10.6031 8.00937C10.6031 9.425 9.45625 10.5719 8.04063 10.5719C6.625 10.5719 5.47813 9.425 5.47813 8.00937C5.47813 6.59375 6.625 5.44688 8.04063 5.44688C9.45625 5.44688 10.6031 6.59375 10.6031 8.00937Z" fill="url(#paint1_radial_94_12335)"/>
<path d="M12.1445 4.82812C12.6537 4.82812 13.0664 4.41539 13.0664 3.90625C13.0664 3.39711 12.6537 2.98438 12.1445 2.98438C11.6354 2.98438 11.2227 3.39711 11.2227 3.90625C11.2227 4.41539 11.6354 4.82812 12.1445 4.82812Z" fill="#654C9F"/>
</g>
<defs>
<radialGradient id="paint0_radial_94_12335" cx="0" cy="0" r="1" gradientUnits="userSpaceOnUse" gradientTransform="translate(0.631311 14.2863) rotate(-3.00009) scale(22.2286 18.8941)">
<stop stop-color="#FED576"/>
<stop offset="0.2634" stop-color="#F47133"/>
<stop offset="0.6091" stop-color="#BC3081"/>
<stop offset="1" stop-color="#4C63D2"/>
</radialGradient>
<radialGradient id="paint1_radial_94_12335" cx="0" cy="0" r="1" gradientUnits="userSpaceOnUse" gradientTransform="translate(4.23692 11.2324) rotate(-3.00009) scale(11.4147 9.70235)">
<stop stop-color="#FED576"/>
<stop offset="0.2634" stop-color="#F47133"/>
<stop offset="0.6091" stop-color="#BC3081"/>
<stop offset="1" stop-color="#4C63D2"/>
</radialGradient>
<clipPath id="clip0_94_12335">
<rect width="16" height="16" fill="white"/>
</clipPath>
</defs>
</svg>
