<svg width="61" height="56" viewBox="0 0 61 56" fill="none" xmlns="http://www.w3.org/2000/svg">
<path d="M31.0773 35.9745C31.1835 35.9745 31.2367 35.9745 31.3429 35.9214C31.7679 35.7621 31.9804 35.3372 31.821 34.9123C31.821 34.9123 30.8648 32.2567 30.4929 29.0168C30.546 29.2824 30.4398 29.4949 30.2804 29.6542C30.121 29.8135 29.8554 29.9198 29.6429 29.8666C29.4304 29.8666 29.2179 29.8135 29.0054 29.8135C29.4304 32.894 30.2804 35.3372 30.3335 35.4434C30.4398 35.8152 30.7585 35.9745 31.0773 35.9745Z" fill="black" fill-opacity="0.6"/>
<path d="M35.1669 17.6499C34.7419 17.8092 34.3169 17.5968 34.1575 17.1718C34.1575 17.1718 34.0512 16.9594 33.945 16.5876C32.9887 17.1718 32.1387 17.9155 31.2887 18.8185C31.5012 19.1903 31.6606 19.6152 31.8731 20.0932C32.0325 20.5182 31.82 20.9431 31.3949 21.1025C30.9699 21.2618 30.5449 21.0493 30.3856 20.6244C30.3324 20.5182 30.2793 20.4119 30.2262 20.3057C29.0574 22.3241 28.6324 24.9799 28.8449 28.22C26.4011 28.0076 24.2761 27.9013 22.4167 28.0076C22.576 28.1669 22.6292 28.22 22.6292 28.22C22.9479 28.5387 22.9479 29.0168 22.6823 29.3355C22.5229 29.4948 22.3104 29.6011 22.0979 29.6011C21.8854 29.6011 21.726 29.5479 21.5666 29.3886C21.5135 29.3355 21.0354 28.9106 20.451 28.1669C18.9103 28.3794 17.6884 28.7512 16.7322 29.2824C16.9978 29.6011 17.1572 29.7604 17.1572 29.8135C17.4228 30.1322 17.4228 30.6634 17.104 30.929C16.9447 31.0883 16.7853 31.1414 16.5728 31.1414C16.3603 31.1414 16.1478 31.0352 15.9884 30.8758C15.9353 30.8227 15.7759 30.6103 15.4571 30.2385C12.9071 32.4693 11.7383 36.5593 12.5352 40.1712C12.5352 40.1181 12.5352 40.065 12.5352 40.0119C12.5883 39.64 12.9071 39.3214 13.3321 39.3214C13.704 39.3214 14.0227 39.5869 14.129 39.9587C13.2258 36.2406 14.8728 32.6818 16.9447 31.0883C16.9978 31.0352 17.0509 31.0352 17.104 30.9821C18.1666 30.2385 19.8666 29.7604 22.2573 29.6011C24.1698 29.4417 26.4542 29.5479 29.1105 29.8135C29.323 29.8135 29.5355 29.8666 29.748 29.8666C30.0137 29.8666 30.2262 29.8135 30.3856 29.6542C30.5449 29.4948 30.6512 29.2292 30.5981 29.0168C30.2262 25.6173 30.5981 22.8553 31.7668 20.9431C31.9793 20.5713 32.245 20.1995 32.5106 19.8808C33.4137 18.9247 34.37 18.1279 35.3794 17.5968C39.2576 15.419 43.6671 16.322 46.0046 19.7745C47.8109 22.3772 53.2297 30.3978 51.211 37.5685C50.2547 40.968 47.7046 43.8894 43.6671 46.1734C42.817 46.4921 30.7043 51.0069 21.0885 47.1294C16.3072 45.2173 14.7134 42.1896 14.129 39.9587C14.129 40.0119 14.129 40.065 14.129 40.1181C14.129 40.1712 14.129 40.2243 14.129 40.2774C13.9696 41.2335 13.8634 42.349 13.8634 43.4644C15.0321 45.3235 17.0509 47.2888 20.451 48.6698C23.5323 49.9446 26.8792 50.3695 29.9605 50.3695C37.3982 50.3695 43.8796 47.82 44.2514 47.6606C44.3046 47.6606 44.3046 47.6075 44.3577 47.6075C47.5984 45.8015 49.9359 43.6238 51.4235 41.0742C51.3703 40.1712 51.3172 39.1089 51.1578 37.8872C51.1047 37.4623 51.4235 37.0373 51.8485 37.0373C52.2735 36.9842 52.6985 37.3029 52.6985 37.7279C52.6985 37.781 52.6985 37.8341 52.6985 37.8872C54.7704 30.026 49.0859 21.6867 47.2265 18.9247C44.5702 14.9941 39.7357 13.7724 35.3263 15.8439C35.5388 16.322 35.645 16.6407 35.645 16.6938C35.8044 17.0656 35.5919 17.5437 35.1669 17.6499Z" fill="black" fill-opacity="0.6"/>
<path d="M27.3064 15.4188C24.8095 14.7283 22.2594 15.8438 20.8782 16.9592C19.0719 18.4464 18.1156 20.1993 18.0625 22.1646C18.0094 24.661 19.3906 26.8919 20.4532 28.1667C21.0375 28.9104 21.5157 29.3353 21.5688 29.3884C21.7282 29.5478 21.9407 29.6009 22.1001 29.6009C22.3126 29.6009 22.5251 29.4946 22.6845 29.3353C23.0032 29.0166 22.9501 28.4854 22.6313 28.2198C22.6313 28.2198 22.5251 28.1136 22.4188 28.0074C21.7282 27.2637 19.6031 24.8735 19.6563 22.2177C19.7094 20.7304 20.4532 19.4025 21.8876 18.1809C23.0563 17.2248 25.0751 16.428 26.8814 16.9592C28.3158 17.331 29.4315 18.4996 30.1752 20.3055C30.2283 20.4117 30.2815 20.518 30.3346 20.6242C30.494 21.0491 30.9721 21.2616 31.344 21.1023C31.769 20.9429 31.9815 20.4649 31.8221 20.0931C31.6628 19.615 31.4502 19.1901 31.2377 18.8183C30.069 16.6405 28.5283 15.7375 27.3064 15.4188Z" fill="black" fill-opacity="0.6"/>
<path d="M15.9901 30.876C16.1495 31.0353 16.362 31.1416 16.5745 31.1416C16.787 31.1416 16.9464 31.0884 17.1057 30.9291C17.4245 30.6104 17.4776 30.1324 17.1589 29.8137C17.1589 29.8137 16.9995 29.6012 16.7339 29.2825C15.6713 27.9015 12.9088 23.8115 13.4932 19.456C13.865 16.5346 15.6713 14.0381 18.8589 11.9135C22.1527 9.73571 25.1278 9.09831 27.7309 10.0013C31.2904 11.223 33.256 15.0473 33.8936 16.5346C34.0529 16.9064 34.1061 17.1189 34.1061 17.1189C34.2654 17.5438 34.6905 17.7563 35.1155 17.5969C35.5405 17.4376 35.753 17.0126 35.5936 16.5877C35.5936 16.5346 35.4873 16.2159 35.2748 15.7378C34.4779 13.9319 32.2998 9.89505 28.2091 8.46091C25.1278 7.39859 21.6746 8.14222 17.9558 10.5856C14.3432 12.9227 12.3244 15.8441 11.8994 19.2435C11.2619 24.1302 14.1838 28.5389 15.4057 30.1855C15.7245 30.6104 15.937 30.8229 15.9901 30.876Z" fill="black" fill-opacity="0.6"/>
<path d="M51.8465 37.0375C51.4215 37.0906 51.1027 37.4624 51.1559 37.8874C51.2621 39.109 51.3684 40.1714 51.4215 41.0744C51.4215 41.4993 51.4215 41.9242 51.4215 42.296C50.1996 53.4504 34.9524 54.3003 31.8711 54.3534C25.3366 54.4597 18.5896 51.9101 15.402 48.1919C14.2864 46.864 13.9145 45.1643 13.8083 43.5177C13.7551 42.4023 13.9145 41.2868 14.0739 40.3307C14.0739 40.2776 14.0739 40.2245 14.0739 40.1714C14.0739 40.1183 14.0739 40.0651 14.0739 40.012C14.0208 39.6402 13.702 39.3746 13.277 39.3746C12.9051 39.3746 12.5332 39.6933 12.4801 40.0651C12.4801 40.1183 12.4801 40.1714 12.4801 40.2245C11.8426 44.0489 12.427 47.1827 14.1802 49.2543C17.5802 53.238 24.646 56 31.4461 56C31.6055 56 31.7117 56 31.8711 56C35.1649 55.9469 51.5809 55.0439 52.9621 42.5085V42.4554C52.9621 41.2868 52.909 39.7996 52.6965 37.9405C52.6965 37.8874 52.6965 37.8343 52.6965 37.7811C52.6965 37.3031 52.2715 36.9844 51.8465 37.0375Z" fill="black" fill-opacity="0.6"/>
<path d="M10.092 31.7253C10.092 31.6191 10.1451 31.5128 10.1451 31.4066C7.86066 32.044 5.36374 31.7784 3.34495 30.4506C2.2293 29.7602 0.954276 28.4323 2.0168 27.1577C3.13244 25.8298 4.99185 26.5203 6.05437 27.4763C6.1075 27.5294 6.1075 27.5294 6.16063 27.5294C5.84187 26.839 5.62937 26.0423 5.62937 25.2987C4.51372 24.7676 3.2387 24.6083 2.06992 25.1394C0.423016 25.883 -0.480126 27.7419 0.263638 29.4415C1.0074 31.088 2.86681 32.2033 4.51372 32.7875C6.58564 33.5311 8.81693 33.5311 10.8888 32.8407C11.0482 32.7875 11.1545 32.7344 11.2076 32.6282C10.7295 32.8938 9.93257 32.4689 10.092 31.7253Z" fill="black" fill-opacity="0.6"/>
<path d="M9.02647 22.3772C7.59207 22.0586 6.26391 22.9084 5.83891 24.2362C5.73265 24.6079 5.67953 24.9266 5.6264 25.2984C5.57328 26.0951 5.83891 26.8387 6.15766 27.5291C6.42329 28.0602 6.74205 28.6445 7.0608 29.1225C7.59206 29.9723 8.97334 29.1756 8.44208 28.3258C7.85769 27.4229 7.11393 26.3607 7.22018 25.2453C7.43269 23.5457 9.18585 23.5988 9.92961 24.9266C10.939 26.6793 10.5671 29.4411 10.1421 31.4063C10.1421 31.5125 10.089 31.6187 10.089 31.725C9.92961 32.4685 10.7265 32.8934 11.2578 32.6279C11.4171 32.5217 11.5765 32.3623 11.6296 32.1499C12.2672 29.2818 12.9578 23.2801 9.02647 22.3772Z" fill="black" fill-opacity="0.6"/>
<path d="M32.5635 9.09767C34.4229 10.1068 36.4417 10.5317 38.5668 10.4255C38.8855 10.4255 39.0449 10.2662 39.2043 10.0537C38.673 10.691 37.5042 9.94747 37.9293 9.09767C37.9824 8.99145 38.0355 8.93834 38.0886 8.83211C35.8042 8.83211 33.5198 8.14166 31.7666 6.60141C30.5447 5.53917 29.9604 3.83957 31.926 3.30845C33.0948 2.98978 34.2636 3.41468 35.1136 4.21136C35.1667 4.26448 35.2198 4.31758 35.273 4.3707C35.2198 3.73335 35.2198 3.04289 35.3792 2.45865C34.3698 1.7682 33.0948 1.50264 31.8198 1.71509C30.226 2.03376 28.6322 3.30846 28.8978 5.06116C29.1635 6.92009 31.0229 8.30099 32.5635 9.09767Z" fill="black" fill-opacity="0.6"/>
<path d="M35.2784 4.42363C35.3315 4.7423 35.3315 5.00787 35.4377 5.32654C35.6502 6.33567 37.1909 5.91076 36.9784 4.90163C36.7659 3.8925 36.6596 2.5116 37.669 1.87425C38.7847 1.13068 39.4753 2.29914 39.6347 3.30827C39.9003 5.27342 38.9972 7.18546 38.094 8.88504C38.0409 8.99127 37.9878 9.04438 37.9347 9.15061C37.5096 10.0004 38.6253 10.744 39.2097 10.1066C39.2628 10.0535 39.3159 10.0004 39.3159 9.94729C40.2191 8.30081 41.0691 6.49499 41.2285 4.58296C41.3347 3.09582 41.1222 1.18378 39.6878 0.333986C38.5722 -0.30336 37.1909 0.0153159 36.2877 0.918222C35.8096 1.39623 35.544 1.92735 35.3846 2.51159C35.2252 3.09582 35.2252 3.73317 35.2784 4.42363Z" fill="black" fill-opacity="0.6"/>
<path d="M56.9469 17.1713C57 17.0651 57.0531 17.0119 57.1062 16.9057C54.8218 16.9057 52.5374 16.2153 50.7842 14.675C49.5623 13.6128 48.978 11.9132 50.9436 11.3821C52.1124 11.0634 53.2812 11.4883 54.1312 12.285C54.1843 12.3381 54.2374 12.3912 54.2906 12.4443C54.2374 11.807 54.2374 11.1165 54.3968 10.5323C53.3874 9.8418 52.1124 9.57625 50.8374 9.7887C49.2436 10.1074 47.6498 11.3821 47.9154 13.1348C48.1811 14.9937 50.0405 16.3215 51.528 17.1182C53.3874 18.1273 55.4062 18.5522 57.5312 18.446C57.85 18.446 58.0094 18.2866 58.1688 18.0742C57.6375 18.7647 56.5218 18.0211 56.9469 17.1713Z" fill="black" fill-opacity="0.6"/>
<path d="M55.36 8.99168C54.8819 9.46969 54.6163 10.0008 54.4569 10.585C54.2975 11.2224 54.2975 11.8597 54.3507 12.4971C54.4038 12.8158 54.4038 13.0813 54.51 13.4C54.7225 14.4091 56.2632 13.9842 56.0507 12.9751C55.8382 11.966 55.7319 10.585 56.7413 9.9477C57.857 9.20413 58.5476 10.3726 58.707 11.3817C58.9726 13.3469 58.0695 15.2589 57.1663 16.9585C57.1132 17.0647 57.0601 17.1178 57.007 17.2241C56.5819 18.0739 57.6976 18.8174 58.282 18.1801C58.3351 18.127 58.3882 18.0739 58.3882 18.0207C59.2914 16.3743 60.1414 14.5685 60.3008 12.6564C60.407 11.1693 60.1945 9.25724 58.7601 8.40745C57.6445 7.7701 56.2101 8.14189 55.36 8.99168Z" fill="black" fill-opacity="0.6"/>
<path d="M34.9025 38.3649C35.0087 38.6836 34.9556 39.0023 34.7962 39.5334C34.5837 40.277 34.3181 41.2861 35.115 42.4015C35.8587 43.5168 37.2931 44.1542 38.7807 44.1542C39.0463 44.1542 39.365 44.1542 39.6307 44.1011C40.9588 43.8886 42.287 43.1981 43.6683 41.9766C44.2526 41.4454 45.0495 40.7019 45.4745 39.7458C45.9527 38.6836 46.0058 37.462 45.4745 36.5591C44.6777 35.072 42.8182 34.6471 41.437 34.9126C40.4807 35.1251 39.6307 35.55 38.8338 36.028C38.6744 35.4969 38.4088 34.9126 37.9838 34.4346C37.1869 33.5317 35.6994 33.0537 34.6368 33.7973C32.8305 35.072 33.9462 36.8247 34.4775 37.6214C34.6368 37.8869 34.7962 38.1525 34.9025 38.3649ZM35.4868 35.072C35.8056 34.8595 36.4431 35.072 36.7087 35.4438C37.1338 35.9749 37.3463 36.7716 37.5056 37.462C37.5588 37.7276 37.7713 37.94 37.9838 38.0463C38.2494 38.1525 38.515 38.0994 38.7275 37.94C39.6307 37.3027 40.5869 36.6122 41.6495 36.3998C42.4995 36.2405 43.562 36.4529 43.987 37.2496C44.2526 37.7276 44.1995 38.418 43.9339 39.0023C43.6151 39.6927 42.9776 40.277 42.4995 40.7019C41.3307 41.711 40.2682 42.2952 39.2588 42.4546C38.2494 42.6139 36.9744 42.4015 36.3369 41.4454C36.0181 40.9674 36.0712 40.5956 36.2837 39.9052C36.4431 39.3209 36.6025 38.5774 36.3369 37.7807C36.1775 37.4089 35.965 37.0371 35.7525 36.7184C35.0087 35.4969 35.0618 35.3907 35.4868 35.072Z" fill="black" fill-opacity="0.6"/>
</svg>
