<svg width="16" height="14" viewBox="0 0 16 14" fill="none" xmlns="http://www.w3.org/2000/svg">
<path d="M5.03168 13.5003C11.0694 13.5003 14.3718 8.4981 14.3718 4.16018C14.3718 4.0181 14.3718 3.87666 14.3622 3.73586C15.0047 3.27117 15.5593 2.69579 16 2.03666C15.4009 2.30227 14.7654 2.47637 14.1146 2.55314C14.7999 2.14294 15.3128 1.49767 15.5578 0.737464C14.9134 1.11987 14.2084 1.38935 13.4733 1.53426C12.9783 1.00798 12.3237 0.659491 11.6108 0.54272C10.8978 0.425949 10.1663 0.547407 9.52931 0.888299C8.89234 1.22919 8.38548 1.77051 8.08716 2.4285C7.78884 3.08648 7.71569 3.82444 7.87904 4.52818C6.57393 4.46272 5.29717 4.12354 4.13164 3.53267C2.9661 2.9418 1.93784 2.11244 1.1136 1.09842C0.693819 1.82109 0.565248 2.67658 0.754066 3.49071C0.942885 4.30483 1.43489 5.01639 2.12992 5.4805C1.60749 5.4652 1.09643 5.32426 0.64 5.06962V5.11122C0.640207 5.86912 0.902567 6.60362 1.38258 7.19014C1.86259 7.77665 2.53071 8.17907 3.2736 8.32914C2.79032 8.46097 2.28325 8.48024 1.79136 8.38546C2.00121 9.03768 2.40962 9.60802 2.95949 10.0168C3.50937 10.4255 4.17322 10.6522 4.85824 10.6651C4.17763 11.2001 3.39821 11.5957 2.56458 11.8291C1.73096 12.0626 0.859476 12.1294 0 12.0258C1.50122 12.9891 3.24795 13.5001 5.03168 13.4978" fill="#1DA1F2"/>
</svg>
