<svg width="88" height="72" viewBox="0 0 88 72" fill="none" xmlns="http://www.w3.org/2000/svg">
<path d="M15.4624 32.3914L15.4736 32.565C15.705 33.0329 16.0925 33.4238 16.6777 33.7617C17.0957 34.003 17.6038 34.1849 18.1778 34.3491C23.8826 35.8597 29.7838 36.2577 35.6177 35.6139C36.7497 35.4873 37.9718 35.3014 39.0284 34.6298C39.0059 34.2825 39.3067 33.9546 39.654 33.9323C39.7618 33.9388 39.8277 33.9211 39.9354 33.9276C40.4163 33.4808 40.8683 32.7945 40.6739 32.0693C40.2562 30.3794 36.9181 29.7895 32.0701 29.4981C31.8547 29.4851 31.6392 29.4722 31.5315 29.4657C27.2704 29.123 22.9723 29.0375 18.7031 29.1917C16.6433 29.284 15.4066 30.0745 15.2214 31.3606C15.2085 31.5761 15.2197 31.7497 15.2309 31.9234C15.374 32.0617 15.4511 32.2177 15.4624 32.3914ZM18.7688 30.6226C22.9544 30.4202 27.1865 30.5233 31.3816 30.8836C31.5312 30.9143 31.7048 30.9031 31.9203 30.916C38.5756 31.3594 39.1704 32.26 39.1816 32.4337C39.1816 32.4337 39.1622 32.7568 38.1716 33.4107C37.3852 33.904 36.3367 34.0788 35.3784 34.1941C29.6763 34.8026 23.9906 34.4175 18.4772 32.9618C17.7537 32.7669 16.5285 32.2825 16.6155 31.5526C16.7378 30.9545 17.8586 30.6544 18.7688 30.6226Z" fill="black" fill-opacity="0.6"/>
<path d="M46.1515 33.0038C46.523 32.9397 46.9169 33.2228 46.9811 33.5943L47.0566 34.1393C47.4987 34.3388 47.9891 34.4548 48.4795 34.5708C53.9882 35.7452 59.5903 36.082 65.1717 35.6824C66.106 35.6089 67.1061 35.5177 67.9585 35.0068C68.1804 34.912 68.3846 34.7513 68.5471 34.5665C68.6018 34.3752 68.7401 34.2322 68.962 34.1374C69.3834 33.6006 69.6617 32.9255 69.5333 32.1827C69.1801 29.4156 62.2546 29.1505 51.2672 29.5493C50.1835 29.5923 49.3151 29.6482 48.8842 29.6223C46.8968 29.5893 45.6665 30.272 45.3977 31.5099C45.2995 32.0661 45.4168 32.6353 45.756 33.1098C45.8878 33.0744 46.0197 33.0391 46.1515 33.0038ZM48.9257 31.095C49.3807 31.0792 50.225 31.065 51.3747 31.0044C54.171 30.8915 58.3324 30.7309 61.9535 30.927C65.5747 31.123 67.0812 31.6028 67.7083 31.9648C68.0845 32.182 68.1375 32.3798 68.1375 32.3798C68.213 32.9248 67.7256 33.4793 67.2995 33.7348C66.6755 34.0432 65.8908 34.1474 65.1302 34.2097C59.6566 34.6158 54.1863 34.2436 48.8031 33.1416C48.2467 33.0433 47.7145 32.9032 47.3624 32.6442C47.0521 32.4093 46.856 32.0732 46.8931 31.816C46.9672 31.3016 48.0156 31.1268 48.9257 31.095Z" fill="black" fill-opacity="0.6"/>
<path d="M40.53 35.4985C40.6024 35.3732 40.5912 35.1995 40.5559 35.0676L40.4386 34.4984C40.3679 34.2347 40.1653 34.0064 39.9081 33.9693C39.8003 33.9628 39.7167 33.9145 39.6267 33.974C39.2552 34.0381 39.0204 34.3483 39.001 34.6715L38.9769 34.7133L40.3725 57.9749C40.451 59.1904 40.4524 60.2499 39.928 61.0616C39.0964 62.3089 37.162 62.4736 35.5637 62.4424C32.0857 62.3846 28.6205 62.1115 25.186 61.6887C22.4396 61.329 19.6226 60.7056 18.0327 58.729C16.6631 57.0467 16.416 54.6751 16.296 51.9869L15.3385 32.6002L15.3273 32.4266C15.3161 32.2529 15.2389 32.0969 15.1376 31.9827C14.9946 31.8444 14.7856 31.7237 14.5878 31.7767C14.1986 31.7749 13.8737 32.1446 13.9139 32.5578L14.2644 40.0598C14.5876 40.0792 14.8979 40.314 14.9621 40.6854C15.0264 41.0568 14.7433 41.4507 14.3718 41.5148L14.8825 52.1182C14.8985 52.5732 14.9145 53.0282 14.9723 53.5073C15.2713 53.5685 15.5286 53.6056 15.8695 53.691C16.2522 53.8005 16.4418 54.2443 16.2906 54.6028C16.1811 54.9854 15.7373 55.1749 15.3788 55.0236C15.2952 54.9753 15.2292 54.993 15.1456 54.9447C15.372 56.5799 15.8556 58.2522 16.9633 59.616C17.5468 60.343 18.2687 60.9269 19.0629 61.3854C20.8186 62.3991 22.9121 62.8277 25.0361 63.1067C28.5125 63.5535 32.0853 63.8332 35.5634 63.891C37.5508 63.924 39.9645 63.7015 41.1756 61.8933C42.0072 60.6461 41.9063 59.0833 41.8454 57.9337L40.53 35.4985Z" fill="black" fill-opacity="0.6"/>
<path d="M72.4869 52.9435C72.3615 52.8711 72.2602 52.757 72.1831 52.601C72.0288 52.289 72.1623 51.8646 72.4566 51.6445C72.6126 51.5674 72.7686 51.4903 72.9246 51.4132L70.5749 38.2993C70.2694 38.3458 69.935 38.1527 69.8225 37.8649C69.6923 37.5111 69.85 37.0449 70.2456 36.939L70.3115 36.9213L69.9438 34.7587C69.8795 34.3873 69.4856 34.1042 69.1142 34.1684C69.0482 34.186 68.9823 34.2037 68.9823 34.2037C68.7845 34.2566 68.6221 34.4415 68.5674 34.6328C68.5191 34.7164 68.4885 34.8658 68.5239 34.9977L71.813 53.7246C72.0812 55.3839 72.3253 57.085 71.3924 58.2181C70.7603 59.0233 69.6571 59.3895 68.4704 59.7073C64.4245 60.8262 60.3079 61.6813 56.1624 62.2969C54.527 62.5229 52.5508 62.6635 51.538 61.5216C51.014 60.8847 50.8501 60.01 50.6574 58.8958L47.011 34.2232L46.9355 33.6781C46.8713 33.3067 46.5015 32.9818 46.1059 33.0877C45.974 33.1231 45.8422 33.1584 45.7521 33.2178C45.5479 33.3785 45.469 33.6116 45.4738 33.893L49.2375 59.1347C49.4126 60.1831 49.5924 61.5127 50.4203 62.4922C50.7241 62.8348 51.0521 63.1356 51.3865 63.3287C52.8496 64.1734 54.7599 64.0504 56.3534 63.8003C60.5648 63.167 64.7474 62.2942 68.8592 61.1576C70.202 60.7627 71.6348 60.3083 72.5258 59.1511C73.79 57.5407 73.53 55.3846 73.2088 53.5275L73.1092 53.0242L72.9773 53.0595C72.8696 53.0531 72.6541 53.0401 72.4869 52.9435Z" fill="black" fill-opacity="0.6"/>
<path d="M16.3411 54.5192C16.4506 54.1366 16.3027 53.7169 15.92 53.6074C15.6451 53.5044 15.346 53.4432 15.0228 53.4238C13.8619 53.3107 12.6751 53.6286 11.662 53.9352L11.3083 54.0653C9.7018 54.5308 8.55853 54.4837 7.87847 53.924C7.19842 53.3642 6.98158 52.2917 6.81299 51.1356L6.02783 45.8345C5.88814 44.918 5.78377 44.1334 6.12157 43.5483C6.60414 42.7125 7.87451 42.4429 9.03068 42.2746L14.4642 41.4554C14.8356 41.3912 15.1605 41.0216 15.0545 40.626C14.9903 40.2546 14.7218 40.0439 14.3568 40.0003C14.315 39.9762 14.249 39.9939 14.1831 40.0115L8.74957 40.8307C7.65933 40.9814 5.69433 41.2957 4.80158 42.8419C4.19837 43.8867 4.40231 45.1746 4.50021 46.067L5.28536 51.3681C5.50697 52.7219 5.78806 54.1658 6.87968 55.0747C7.02276 55.213 7.14818 55.2854 7.31539 55.3819C8.36044 55.9853 9.78511 56.0277 11.6135 55.4674L11.9673 55.3373C13.0463 55.013 14.1671 54.7128 15.1061 54.9206C15.1897 54.9689 15.2557 54.9512 15.3393 54.9995C15.8297 55.1155 16.2317 54.9018 16.3411 54.5192Z" fill="black" fill-opacity="0.6"/>
<path d="M32.42 40.5674C31.1225 40.2083 29.6703 40.9858 28.6216 42.6092C28.3144 43.0448 28.0731 43.4627 27.8495 43.9465C27.8287 43.2102 27.7179 42.5333 27.4093 41.9093C26.8516 40.7515 25.395 39.7991 24.0635 40.3676C23.1999 40.7049 22.5855 41.5761 22.2684 42.8975C21.5361 46.0966 22.3294 50.9009 25.2039 53.4521C25.4306 53.6387 25.6155 53.8011 25.7827 53.8977C26.4934 54.3079 27.1639 54.305 27.6012 54.2232C29.92 53.7789 31.7137 50.1895 32.9154 47.8186C33.0907 47.4183 33.2837 47.084 33.4526 46.7915C33.9658 45.8061 34.479 44.8208 34.5082 43.6118C34.5374 42.4027 33.8012 40.9748 32.42 40.5674ZM33.0594 43.6111C33.0737 44.4552 32.6329 45.3152 32.1745 46.1092C32.0056 46.4018 31.8543 46.7602 31.6131 47.1781C30.7009 49.0476 28.9797 52.5115 27.3379 52.8452C27.0983 52.8741 26.685 52.9141 26.1304 52.4267C23.6674 50.2246 23.009 46.0555 23.6319 43.239C23.7542 42.6409 24.0149 41.8998 24.5665 41.7168C25.0762 41.5096 25.8045 41.9858 26.0955 42.5438C26.4635 43.2578 26.4119 44.1196 26.3715 45.155C26.2893 46.1662 26.2182 47.3511 26.6747 48.3947C26.7872 48.6826 27.1216 48.8756 27.4271 48.8291C27.7327 48.7826 27.9852 48.5384 28.0705 48.1975C28.2815 46.4805 28.8993 44.8312 29.8274 43.4168C30.3759 42.5633 31.2652 41.7952 32.0547 41.9724C32.6705 42.1608 33.0563 42.9407 33.0594 43.6111Z" fill="black" fill-opacity="0.6"/>
<path d="M61.6609 40.5089C60.828 40.6967 60.257 41.2029 59.8291 41.8474C59.6636 41.3618 59.4145 40.8279 59.0512 40.3953C58.2298 39.3081 56.6107 38.5405 55.2068 39.2344C54.3368 39.6794 53.7223 40.5505 53.5919 41.6454C53.4743 42.5248 53.6799 43.4236 53.892 44.2147C55.1533 48.7877 56.4295 51.3076 57.9344 52.1764C58.018 52.2247 58.1016 52.273 58.1852 52.3212C60.0615 53.1259 62.0625 50.0463 63.4732 47.796C63.6662 47.4617 63.901 47.1515 64.0217 46.9425C64.6602 46.0296 65.397 44.5604 65.0564 43.0265C64.8685 42.1936 64.3332 41.383 63.6467 40.931C63.0679 40.4854 62.3202 40.3323 61.6609 40.5089ZM62.9059 46.0755C62.7612 46.3262 62.5263 46.6364 62.3092 47.0126C60.0428 50.5519 59.1422 51.1464 58.7836 50.9951C58.1501 50.7408 56.8448 49.4299 55.2766 43.8439C55.0998 43.1846 54.9472 42.4836 55.0519 41.8196C55.1018 41.3469 55.356 40.7136 55.8658 40.5064C56.2678 40.2928 56.8 40.4329 57.218 40.6742C57.4689 40.819 57.7373 41.0298 57.874 41.2758C58.4752 42.0687 58.692 43.1412 58.8494 44.1236C58.896 44.4291 59.1821 44.7057 59.5053 44.7252C59.8285 44.7446 60.1405 44.5903 60.2258 44.2495C60.5894 43.2336 61.0849 42.1824 61.9179 41.9946C62.2893 41.9305 62.6061 42.0576 62.8151 42.1783C63.209 42.4614 63.5305 42.8699 63.6301 43.3732C63.8952 44.362 63.2855 45.5145 62.9059 46.0755Z" fill="black" fill-opacity="0.6"/>
<path d="M76.4657 52.9019C77.8533 53.2015 79.4146 53.4899 80.759 52.7059C82.7515 51.5717 82.8823 49.0283 82.7718 46.9028L82.5862 42.7837C82.4852 41.2209 82.4277 39.2931 81.3089 37.7556C80.1901 36.2181 78.1224 35.3587 75.8053 35.414C73.8532 35.5128 71.9942 36.2227 70.3749 36.9037L70.3089 36.9213C69.9552 37.0514 69.7557 37.4934 69.8859 37.8472C69.9984 38.135 70.3328 38.3281 70.6383 38.2816C70.7042 38.264 70.7701 38.2463 70.8361 38.2287C72.4973 37.5718 74.1584 36.9149 75.8709 36.8449C77.3021 36.7796 79.1383 37.1711 80.114 38.5703C80.9949 39.7475 81.0653 41.4598 81.1133 42.8248L81.2989 46.944C81.3934 48.6145 81.3126 50.6852 79.9923 51.4274C79.0982 51.9142 77.9437 51.6935 76.7474 51.4486C75.9579 51.2714 75.1025 51.1118 74.2583 51.126C74.1088 51.0953 74.001 51.0889 73.8692 51.1242L73.8033 51.1418C73.4977 51.1883 73.234 51.259 72.922 51.4132C72.766 51.4903 72.61 51.5674 72.454 51.6445C72.1179 51.8405 72.0085 52.2231 72.1805 52.601C72.2576 52.757 72.3589 52.8711 72.4843 52.9436C72.6515 53.0401 72.867 53.053 73.0648 53.0001L73.1967 52.9648L74.1679 52.634C74.8208 52.5652 75.6762 52.7247 76.4657 52.9019Z" fill="black" fill-opacity="0.6"/>
<path d="M25.2531 23.056C25.3367 23.1043 25.4203 23.1526 25.5039 23.2008C27.2837 24.1727 29.0911 24.3246 30.8005 23.5841C33.9492 22.2816 36.1272 18.4126 37.038 15.4837C37.5722 13.7861 38.3188 11.4311 37.8497 9.15432C37.4225 6.90167 35.4805 4.66605 33.0316 4.75664C31.4268 4.83313 29.9135 5.90966 28.9725 7.53952C28.6588 8.08281 28.4528 8.6326 28.2887 9.2065C28.1939 8.98459 28.0749 8.80444 27.956 8.62432C27.1893 7.34582 25.9834 6.53821 24.7325 6.48462C22.6437 6.33742 20.9775 8.16151 20.3226 10.068C18.7523 14.6221 21.0311 20.6185 25.2531 23.056ZM24.7321 7.93325C25.6358 8.0092 26.393 8.72498 26.7852 9.39719C27.2963 10.2495 27.5373 11.2802 27.7783 12.3108C27.8667 12.6405 28.177 12.8754 28.5002 12.8948C28.8475 12.8724 29.1418 12.6523 29.1853 12.2873C29.4187 10.9176 29.6345 9.48197 30.2683 8.28768C30.7815 7.30234 31.8156 6.28348 33.1149 6.25349C34.7856 6.15934 36.1311 7.88346 36.4475 9.45919C36.7752 11.2086 36.2763 13.038 35.6568 15.0764C34.7943 17.9217 32.7804 21.2168 30.2316 22.2527C28.9242 22.7795 27.5478 22.6535 26.186 21.9229C22.435 19.9245 20.3152 14.5215 21.7391 10.6072C22.2298 9.27461 23.3734 7.87318 24.7321 7.93325Z" fill="black" fill-opacity="0.6"/>
<path d="M64.903 11.3428C63.6669 9.23611 61.2536 8.00995 58.9654 8.3048C57.5037 8.51961 56.2847 9.37601 55.4596 10.5156C55.2876 10.1377 55.1156 9.75977 54.9019 9.35774C54.1287 8.18696 52.6785 7.12686 51.0543 7.52649C49.2147 7.91317 48.3203 9.8485 48.0675 11.5414C47.4202 15.8483 49.8407 20.9234 53.971 23.8095C54.1382 23.906 54.2636 23.9784 54.4308 24.0749C55.7685 24.8472 57.2526 24.9797 58.8173 24.49C61.8807 23.5283 64.4686 20.3975 65.3535 17.8994C66.1772 15.7003 66.0443 13.2276 64.903 11.3428ZM58.3978 23.1892C57.0969 23.6083 55.8524 23.4469 54.8379 22.694C51.8298 20.5673 48.8673 16.238 49.5211 11.8233C49.6757 10.6867 50.2806 9.25286 51.4191 9.01862C52.318 8.81321 53.2729 9.47603 53.7246 10.2383C54.3194 11.1389 54.5298 12.3191 54.6984 13.4751C54.7626 13.8465 55.1147 14.1055 55.462 14.0832C55.8335 14.019 56.1342 13.6912 56.1118 13.3439C56.035 11.7393 57.4552 10.0518 59.1983 9.83226C60.8995 9.58861 62.7453 10.5428 63.6663 12.1333C64.5697 13.6578 64.6866 15.6756 64.0141 17.5162C63.2386 19.6317 60.9338 22.3687 58.3978 23.1892Z" fill="black" fill-opacity="0.6"/>
<path d="M9.67574 17.4058C12.2097 18.423 14.4524 20.3307 15.8011 22.7252C15.8605 22.8152 15.9618 22.9294 16.0872 23.0019C16.2962 23.1225 16.5776 23.1178 16.7995 23.0231C17.1356 22.8271 17.2692 22.4027 17.0972 22.0248C15.5942 19.3185 13.1489 17.1824 10.2323 16.0556C9.87379 15.9044 9.42997 16.0938 9.27876 16.4523C9.12755 16.8107 9.3172 17.2545 9.67574 17.4058Z" fill="black" fill-opacity="0.6"/>
<path d="M14.1637 26.6266C14.2731 26.2441 14.0593 25.842 13.6767 25.7325L6.33521 23.3884C5.95254 23.2789 5.5505 23.4925 5.44109 23.8751C5.35581 24.2159 5.486 24.5696 5.77862 24.7385C5.82042 24.7627 5.86223 24.7868 5.90403 24.811L13.2455 27.1551C13.6523 27.2228 14.0543 27.0092 14.1637 26.6266Z" fill="black" fill-opacity="0.6"/>
<path d="M68.6498 22.032C68.7093 22.1221 68.8106 22.2363 68.936 22.3087C69.145 22.4294 69.4264 22.4247 69.6483 22.3299C71.7067 21.1782 73.5931 19.6486 75.0856 17.8358C75.3204 17.5257 75.3044 17.0706 74.9941 16.8358C74.6838 16.6009 74.2287 16.6168 73.9939 16.927C72.6397 18.5967 70.8676 20.0251 68.9652 21.0997C68.5696 21.2057 68.4779 21.6542 68.6498 22.032Z" fill="black" fill-opacity="0.6"/>
<path d="M80.99 25.7582C78.1228 27.0559 74.9711 27.6878 71.8581 27.6735C71.469 27.6717 71.1265 27.9754 71.1248 28.3645C71.1296 28.6458 71.2662 28.8918 71.4752 29.0125C71.6006 29.0849 71.7084 29.0914 71.8161 29.0979C75.1445 29.1252 78.5181 28.3984 81.5413 27.0237C81.9192 26.8518 82.0527 26.4275 81.9226 26.0737C81.7682 25.7618 81.3679 25.5863 80.99 25.7582Z" fill="black" fill-opacity="0.6"/>
</svg>
